<svg id="ee5d79a0-1803-4a58-a0ce-df78a7549e83" data-name="Layer 1" xmlns="http://www.w3.org/2000/svg" viewBox="0 0 935.76 639.93">
  <g>
    <path d="M1231.61,985.34c-12,4.8-24.12,8.62-37.24,4-5-1.73-10.17-2.78-15.27-4.14l-4.38-2.92-.11-.07-3-2.83-.1-.1c-1.08-3.7-3.19-7.43-3.08-11.09.76-26,2-52,3.07-78.06,0-.74.19-1.48.26-2.22,1.86-20.42,4.07-40.83,5.16-61.29.15-2.88-4.71-7.67-8.16-8.79a154.48,154.48,0,0,0-27.07-5.84c-7.49-1-15.44-2.42-17.36,9.29-2,12.06-5.73,23.84-8.64,35.76q-11.06,45.3-22,90.62c-2.36,9.71-7.44,17-18,18.2-18.4,2-35.5-1.15-50.42-13.3-9.4-7.66-14.65-19.52-10.55-28.77,4.76-10.77,10.56-21.08,15.52-31.76,13-27.94,25.71-56,38.6-84,4-8.78,6.07-16.57-5.24-22.07-9.41-4.57-18.11-10.57-27.45-15.29-1.73-.87-6.25.53-7.42,2.27Q993.55,825.1,959,877.61c-7.26,11.06-14.15,22.52-29.89,19.22-17.2-3.6-32.08-12-41.23-27.42-8-13.54-8.95-25.36,4.23-37.19,19.24-17.26,37-36.17,55.1-54.7,5.43-5.58,9.73-12.28,14.55-18.46C968.51,752.68,975,746,982.06,740c5.84-4.94,5.4-8.85.37-14.09-7.35-7.65-13.64-16.36-21.34-23.61-2.5-2.35-9.43-3.53-11.91-1.79-20.14,14.1-39.78,28.91-59.4,43.74-15.92,12-30.91,25.46-47.71,36-6.33,4-17.94,4.73-24.83,1.7-22.91-10.06-31.57-29.35-30.1-54.17.51-8.65,3.58-14,11-17.6q30-14.4,60-28.87c5.12-2.48,10.12-5.23,15.17-7.86,14.85-7.44,29.85-14.61,44.39-22.62,2.3-1.27,4.12-6.7,3.42-9.53-2.29-9.23-6.08-18.08-8.84-27.21-2.26-7.43-12.15-9-22.87-5.25-16.12,5.72-32.7,10.16-49.09,15.14-5.47,1.09-11.11,1.68-16.39,3.37-9.19,2.93-18.17,6.54-27.23,9.87l-3,.2c-7.56,2-15.07,4.32-22.72,6-14.12,3.06-25.71-6-33.11-25.34l-2.5-3.08,0-.08q0-17.93-.1-35.86l0-.05c1.39-1.85,2.54-4,4.23-5.51,4.24-3.82,8.41-10,13.16-10.59,36.62-4.3,73.38-7.49,110.09-11,10.47-1,21-1.64,31.35-3.3,1.84-.29,4.16-4.7,4.28-7.31.49-10.41.2-20.86.19-31.29,0-12.81-3.75-15.56-16.41-12.1h-2.59l-6.32-1.24-13.41-.32-40.61-2.78-7.31-.05-9.34-.09-2.46-.2c-2.16-1.28-4.3-3.64-6.48-3.69-14.46-.29-28.92-.08-43.38,0l-3-.33-3.08-2.62c-2.11-2.24-4.58-4.25-6.28-6.77-8.29-12.36-5.27-26.49-5.92-40,.06-1,.11-2.08.17-3.12q1.56-4.5,3.11-9l0,0C743.8,414.84,753,403,771.28,407.76l3.22.19L784.65,411l3.21.18,10,3c10.47,2.37,21,4.57,31.39,7.16,16.36,4.07,32.66,8.35,49,12.63,6.12,1.61,12.23,3.3,18.25,5.22,5.2,1.65,8.29,1,9.78-5.17,2.26-9.45,5.62-18.64,8.32-28,1.46-5.1,2.68-9.63-4.46-12.61-24.69-10.28-49.12-21.21-73.62-31.95-5.8-2.55-11.51-5.3-19.64-9.07,6.24-.42,10.08-.91,13.92-.91q350.1,0,700.19.05c2.46,0,4.91,1.19,7.37,1.82-2,1.69-3.68,3.9-5.94,5-15.82,7.59-31.86,14.75-47.53,22.64-2.19,1.11-4.49,6-3.76,8.21a297.11,297.11,0,0,0,13.34,33.64c1.19,2.5,6.85,5.05,9.54,4.3,20.23-5.62,40.18-12.23,60.31-18.21,16.83-5,33.84-9.39,50.68-14.37,12.09-3.58,24.8-7.5,34.34,3.56,6.23,7.22,10.27,16.66,14,25.66,5.87,14.27.82,35.84-10.28,45.45-3.39,2.94-8.09,5.53-12.44,6-18.24,2-36.57,3-54.86,4.58-24,2-48.08,4-72,6.64-2.69.3-6.79,5.14-6.93,8a364.78,364.78,0,0,0,.43,36.52c.09,1.67,3.15,4.43,5,4.58,17,1.37,34,2.38,51,3.3,21.76,1.18,43.55,1.93,65.3,3.38a86.29,86.29,0,0,1,22.43,4.22c4,1.38,7.68,5.46,10,9.25,12.87,20.87,5.91,52.68-11.22,68.36-10,9.14-20,3.9-30,2-11.65-2.2-23.11-5.49-34.59-8.5-9.49-2.49-18.89-5.34-28.36-7.92-10.53-2.87-21-5.75-31.64-8.37-5.67-1.41-12.17-1-17.08-3.67-12.47-6.75-11.58,4.22-14.14,10-3.38,7.63-5.55,15.81-9,23.43-2.84,6.36-1.66,10,4.85,12.81,26.76,11.57,53.35,23.54,80.09,35.15,11.45,5,23.21,9.21,34.67,14.16A27.37,27.37,0,0,1,1619,729.6c-4.45,9.91-8.78,20.31-15.4,28.74-13.63,17.36-26.84,19.28-47,5.46-18-12.38-35.76-25.22-53.62-37.86-.58-1-.9-2.46-1.78-3.09-12.74-9.07-26-17.51-38.17-27.26-6.94-5.54-11.57-7-17.51.77-6.76,8.82-14.47,16.9-21.37,25.62-1.79,2.26-3.75,7.31-2.76,8.36,6.18,6.52,13.18,12.27,19.9,18.28l0,0,35.93,33,.05,0L1494,798h0c9.14,10,18.81,19.66,27.17,30.31,3.24,4.14,6,11.22,4.76,15.88-6.05,23.31-22.15,37.32-45.48,41.75-5.89,1.12-14.88-1-18.79-5.09-8.54-9-14.69-20.22-21.9-30.48-10.47-14.92-20.89-29.87-31.55-44.65-8.82-12.24-17.77-24.42-27.14-36.24-1.55-2-6.36-3.61-8.27-2.65A352.79,352.79,0,0,0,1339,786c-2.48,1.62-4.55,8-3.33,10.51,18,36.83,35.76,73.78,55.2,109.83,12.06,22.34,4.57,33.27-7.15,42.2-13.45,10.26-29.09,13.5-45.52,11.05-5.28-.78-13.09-3.74-14.55-7.64-6.64-17.81-11.71-36.23-16.82-54.58-6.88-24.66-12.88-49.56-20.18-74.09-1.61-5.41-7.06-13.66-10.81-13.7-11.49-.13-23.18,2.49-34.44,5.37-3.71.95-9.09,6-9.06,9.13.16,15.08,1.85,30.14,3.13,45.19.7,8.33,1.44,16.67,2.52,25,2.82,21.78,6.84,43.47,8.22,65.33.47,7.34-5.57,15.1-8.64,22.66l0,0Z" transform="translate(-731.89 -351.5)" style="fill: #fed364"/>
    <path d="M961.77,759.06c-4.82,6.18-9.12,12.88-14.55,18.46-18.07,18.53-35.86,37.44-55.1,54.7-13.18,11.83-12.28,23.65-4.23,37.19,9.15,15.38,24,23.82,41.23,27.42,15.74,3.3,22.63-8.16,29.89-19.22q34.47-52.54,69.71-104.61c1.17-1.74,5.69-3.14,7.42-2.27,9.34,4.72,18,10.72,27.45,15.29,11.31,5.5,9.28,13.29,5.24,22.07-12.89,28-25.62,56-38.6,84-5,10.68-10.76,21-15.52,31.76-4.1,9.25,1.15,21.11,10.55,28.77,14.92,12.15,32,15.3,50.42,13.3,10.55-1.15,15.63-8.49,18-18.2q11-45.33,22-90.62c2.91-11.92,6.67-23.7,8.64-35.76,1.92-11.71,9.87-10.3,17.36-9.29a154.48,154.48,0,0,1,27.07,5.84c3.45,1.12,8.31,5.91,8.16,8.79-1.09,20.46-3.3,40.87-5.16,61.29-.07.74-.23,1.48-.26,2.22-1.09,26-2.31,52-3.07,78.06-.11,3.66,2,7.39,3.08,11.09-2.44-3.25-7.08-6.56-7-9.71.87-27.28,2.49-54.53,4.11-81.78.7-11.76,1.76-23.51,2.95-35.24.69-6.78,2.1-13.49,2.93-20.26,1.09-8.87-5-12-12-13.28-8.72-1.57-17.75-1.58-26.37-3.48-6.45-1.42-8.27,2.5-9.25,6.54-4.92,20.21-9.09,40.6-14,60.8-5,20.45-10.65,40.75-16,61.13-1.16,4.44-1.24,9.45-3.46,13.25-4.44,7.61-11.07,11.77-20.72,11.88-17.35.2-33.61-1.46-48.37-12.26-13.44-9.84-17.76-23.68-10.82-38.84,10.26-22.4,19.91-45.08,30-67.55,4.28-9.48,9.23-18.65,13.64-28.08,3.4-7.26,7.19-14.5,9.22-22.16.81-3-1.62-8.84-4.35-10.56-8-5.05-16.87-8.77-25.51-12.79-1.48-.68-4.57-1-5.09-.2-8.11,12-15.72,24.4-23.88,36.4-7.9,11.63-16.55,22.75-24.41,34.4-8.92,13.2-17.86,26.43-25.78,40.23-6.12,10.65-15.39,14.92-26.22,13.17-19.75-3.19-37.36-11.46-47.58-30-8.92-16.14-5.86-30,7.09-42.72,14.58-14.32,28.63-29.17,42.81-43.89,6.11-6.34,12-12.92,18-19.39l2.7-2.73.23-.21,4.18-3.06,0-.05Z" transform="translate(-731.89 -351.5)" style="fill: #e1e7c5"/>
    <path d="M1237.52,982.22c3.07-7.56,9.11-15.32,8.64-22.66-1.38-21.86-5.4-43.55-8.22-65.33-1.08-8.28-1.82-16.62-2.52-25-1.28-15-3-30.11-3.13-45.19,0-3.13,5.35-8.18,9.06-9.13,11.26-2.88,23-5.5,34.44-5.37,3.75,0,9.2,8.29,10.81,13.7,7.3,24.53,13.3,49.43,20.18,74.09,5.11,18.35,10.18,36.77,16.82,54.58,1.46,3.9,9.27,6.86,14.55,7.64,16.43,2.45,32.07-.79,45.52-11.05,11.72-8.93,19.21-19.86,7.15-42.2-19.44-36.05-37.24-73-55.2-109.83-1.22-2.5.85-8.89,3.33-10.51a352.79,352.79,0,0,1,33.83-19.18c1.91-1,6.72.69,8.27,2.65,9.37,11.82,18.32,24,27.14,36.24,10.66,14.78,21.08,29.73,31.55,44.65,7.21,10.26,13.36,21.5,21.9,30.48,3.91,4.11,12.9,6.21,18.79,5.09,23.33-4.43,39.43-18.44,45.48-41.75,1.21-4.66-1.52-11.74-4.76-15.88-8.36-10.65-18-20.28-27.17-30.31,2.21.84,5,1.13,6.55,2.63,6.68,6.33,12.36,13.86,19.6,19.38,13.22,10.07,12,22.39,6.52,35.06-7.8,18-30.24,36.59-51.56,35.16-7-.48-15.72-5.42-20.12-11.07-16.16-20.72-30.85-42.59-46.07-64-8-11.3-16.46-22.35-23.82-34.07-5.68-9-11.82-10.86-20.72-5-6.58,4.34-13.84,7.71-20.09,12.45-2.26,1.72-4.34,7.09-3.3,9.23,19,38.81,38.36,77.39,57.75,116,6.08,12.09-.41,27.57-10.43,36.23-16.6,14.35-35.48,14.09-54.73,12.42-5.18-.45-12.7-5.44-14.31-10-6.68-19.08-11.45-38.82-17-58.28-5-17.35-10.17-34.65-15.22-52-1.49-5.14-3.49-10.27-4-15.52-1-9.4-4-14.2-14.74-11.2-7.76,2.17-16.06,2.33-24.1,3.53-8.59,1.29-12.32,10.12-8.44,19.37a27.7,27.7,0,0,1,1.86,7c2.42,17.77,4.82,35.55,7,53.35,1,8.53,3,17.24,2.2,25.64-1.77,18.24,12.86,37.26-2.52,54.64C1242.69,980.59,1239.79,981.13,1237.52,982.22Z" transform="translate(-731.89 -351.5)" style="fill: #fde6a8"/>
    <path d="M961.77,759.06l-3.1-.16c6.17-6.6,12.09-13.48,18.61-19.73,5-4.74,4.68-8.22-.06-13C971.12,720,966,713,960.11,706.56c-6.84-7.51-11.75,0-16.34,3.1Q920.06,725.74,897.15,743c-12,9.06-22.88,19.65-35.17,28.26-10.48,7.35-18.45,18.74-34.23,18.06-18.8-.81-34.66-14.91-39.75-31.28-3.58-11.53-4.51-24.31-4.27-36.48.21-10.63,10.47-14.19,18.74-18.11,18-8.52,36-17,54.12-25.11,5.24-2.33,11.1-3.28,16.67-4.87-5,2.63-10,5.38-15.17,7.86q-29.94,14.5-60,28.87c-7.41,3.56-10.48,8.95-11,17.6-1.47,24.82,7.19,44.11,30.1,54.17,6.89,3,18.5,2.28,24.83-1.7,16.8-10.59,31.79-24,47.71-36,19.62-14.83,39.26-29.64,59.4-43.74,2.48-1.74,9.41-.56,11.91,1.79,7.7,7.25,14,16,21.34,23.61,5,5.24,5.47,9.15-.37,14.09C975,746,968.51,752.68,961.77,759.06Z" transform="translate(-731.89 -351.5)" style="fill: #dee6c7"/>
    <path d="M1441.36,748.62c-6.72-6-13.72-11.76-19.9-18.28-1-1.05,1-6.1,2.76-8.36,6.9-8.72,14.61-16.8,21.37-25.62,5.94-7.75,10.57-6.31,17.51-.77,12.19,9.75,25.43,18.19,38.17,27.26.88.63,1.2,2,1.78,3.09-8.53-5.14-17.15-10.15-25.57-15.48-6.65-4.2-12.78-9.29-19.71-12.91-2.28-1.19-7.54-.1-9.36,1.87-6.51,7-11.52,15.51-18.28,22.26-6.08,6.08-3.57,9.81,1,14.56C1434.82,740.09,1438,744.47,1441.36,748.62Z" transform="translate(-731.89 -351.5)" style="fill: #fde6a8"/>
    <path d="M756,562.55c17.93-.8,36.53-6,54.41-7.57,17.47-1.51,34.86-3.9,52.28-5.9l0,2.83c-36.71,3.54-73.47,6.73-110.09,11-4.75.56-8.92,6.77-13.16,10.59-1.69,1.53-2.84,3.66-4.23,5.51" transform="translate(-731.89 -351.5)" style="fill: #bed5aa"/>
    <path d="M862.72,551.91l0-2.83c8.16-1.41,18,0,24.37-4.58,3.49-1.12,10.58-5.6,11.24-9.15,1.3-7-1.1-14.35-.5-21.48.87-10.29-4.54-15.76-15.61-14.38l-.06-1.58c12.66-3.46,16.4-.71,16.41,12.1,0,10.43.3,20.88-.19,31.29-.12,2.61-2.44,7-4.28,7.31C883.71,550.27,873.19,550.92,862.72,551.91Z" transform="translate(-731.89 -351.5)" style="fill: #d3dba9"/>
    <path d="M737.85,618.11c7.4,19.38,19,28.4,33.11,25.34,7.65-1.66,15.16-4,22.72-6-6.28,7-30.06,8.29-38.27,4.95-13.1-5.34-17.68-11.26-20.1-24.36Z" transform="translate(-731.89 -351.5)" style="fill: #c9dec1"/>
    <path d="M744.11,486.55l3.08,2.62,3,.33" transform="translate(-731.89 -351.5)" style="fill: #bddbc3"/>
    <path d="M731.91,439.74" transform="translate(-731.89 -351.5)" style="fill: #bddbc3"/>
    <path d="M1477.33,781.61l-35.93-33c4.7,3.48,9.79,6.55,14,10.54C1463,766.38,1470.05,774.11,1477.33,781.61Z" transform="translate(-731.89 -351.5)" style="fill: #fde6a8"/>
    <path d="M760.61,493.25l-10.38-3.75c14.46,0,28.92-.25,43.38,0,2.18,0,4.32,2.41,6.47,3.7l-2.75.36Z" transform="translate(-731.89 -351.5)" style="fill: #d3dba9"/>
    <path d="M771.28,407.76C753,403,742.8,416.84,734.17,429.65,735.09,413.83,770.33,406.51,771.28,407.76Z" transform="translate(-731.89 -351.5)" style="fill: #bddbc3"/>
    <path d="M796.65,637.27c9.06-3.33,18-6.94,27.23-9.87,5.28-1.69,10.92-2.28,16.39-3.37-3.41,1.86-6.61,4.47-10.26,5.44C819,632.41,807.78,634.72,796.65,637.27Z" transform="translate(-731.89 -351.5)" style="fill: #c9dec1"/>
    <path d="M819.2,493.57l40.61,2.78c-.06,1-.13.08-.19,1.12l-40.37-3.11C819.24,493.43,819.22,494.5,819.2,493.57Z" transform="translate(-731.89 -351.5)" style="fill: #d3dba9"/>
    <path d="M735.21,579.09q.06,17.92.1,35.86a5.53,5.53,0,0,1-1.69-4c-.34-9.34-.35-18.59,0-27.94A5.55,5.55,0,0,1,735.21,579.09Z" transform="translate(-731.89 -351.5)" style="fill: #bed5aa"/>
    <path d="M1494,798l-16.59-16.33Z" transform="translate(-731.89 -351.5)" style="fill: #fde6a8"/>
    <path d="M819.2,493.57c0,.93,0,1.86,0,2.79l-14.9.09c-.07-.91-.13-1.83-.19-2.74l7.73-.19Z" transform="translate(-731.89 -351.5)" style="fill: #cad8af"/>
    <path d="M859.62,499.47c.06-1,.13-2.08.19-3.12l13.41.32c0,.95,0,1.9,0,2.85Z" transform="translate(-731.89 -351.5)" style="fill: #cad8af"/>
    <path d="M735.19,427.6q-1.55,4.51-3.11,9Q733.64,432.11,735.19,427.6Z" transform="translate(-731.89 -351.5)" style="fill: #bddbc3"/>
    <path d="M797.9,414.21l-10-3Z" transform="translate(-731.89 -351.5)" style="fill: #bddbc3"/>
    <path d="M784.65,411,774.5,408Z" transform="translate(-731.89 -351.5)" style="fill: #bddbc3"/>
    <path d="M804.16,493.71c.06.91.12,1.83.19,2.74l-7-2.85,2.76-.36,2.47.19Z" transform="translate(-731.89 -351.5)" style="fill: #bddbc3"/>
    <path d="M873.24,499.52c0-.95,0-1.9,0-2.85l6.32,1.25-3.31,1.6Z" transform="translate(-731.89 -351.5)" style="fill: #d3dba9"/>
    <path d="M1231.61,985.34l5.89-3.1Z" transform="translate(-731.89 -351.5)" style="fill: #fde6a8"/>
    <path d="M958.62,759,954.44,762Z" transform="translate(-731.89 -351.5)" style="fill: #dee6c7"/>
    <path d="M1174.72,982.31l4.38,2.92Z" transform="translate(-731.89 -351.5)" style="fill: #e1e7c5"/>
    <path d="M876.23,499.52l3.31-1.6h2.59l.06,1.58Z" transform="translate(-731.89 -351.5)" style="fill: #cad8af"/>
    <path d="M737.85,618.11l-2.54-.05,0-3C736.18,616.06,737,617.08,737.85,618.11Z" transform="translate(-731.89 -351.5)" style="fill: #bed5aa"/>
    <path d="M954.21,762.22l-2.7,2.73Z" transform="translate(-731.89 -351.5)" style="fill: #dee6c7"/>
    <path d="M1171.64,979.41l3,2.83Z" transform="translate(-731.89 -351.5)" style="fill: #e1e7c5"/>
    <path d="M804.16,493.71l-1.61-.28,9.34.09Z" transform="translate(-731.89 -351.5)" style="fill: #d3dba9"/>
    <path d="M747.19,489.17l-3.08-2.62Z" transform="translate(-731.89 -351.5)" style="fill: #d3dba9"/>
  </g>
</svg>
