<?xml version="1.0" standalone="no"?>
<!DOCTYPE svg PUBLIC "-//W3C//DTD SVG 20010904//EN"
 "http://www.w3.org/TR/2001/REC-SVG-20010904/DTD/svg10.dtd">
<svg version="1.0" xmlns="http://www.w3.org/2000/svg"
 width="1280.000000pt" height="1139.000000pt" viewBox="0 0 1280.000000 1139.000000"
 preserveAspectRatio="xMidYMid meet">
<metadata>
Created by potrace 1.15, written by Peter Selinger 2001-2017
</metadata>
<g transform="translate(0.000000,1139.000000) scale(0.100000,-0.100000)"
fill="#000000" stroke="none">
<path d="M1419 11375 c-164 -27 -292 -66 -664 -203 -368 -136 -544 -181 -702
-182 l-53 0 0 -296 0 -297 77 7 c193 18 341 58 728 201 429 158 581 195 795
195 214 0 366 -37 795 -195 448 -165 586 -199 805 -199 219 0 357 34 805 199
429 158 581 195 795 195 214 0 366 -37 795 -195 448 -165 586 -199 805 -199
219 0 357 34 805 199 429 158 581 195 795 195 214 0 366 -37 795 -195 448
-165 586 -199 805 -199 219 0 357 34 805 199 429 158 581 195 795 195 214 0
366 -37 795 -195 387 -143 535 -183 728 -201 l77 -7 0 297 0 296 -52 0 c-165
1 -327 44 -753 200 -462 169 -563 194 -795 194 -232 0 -333 -25 -795 -194
-460 -169 -585 -200 -805 -200 -220 0 -345 31 -805 200 -462 169 -563 194
-795 194 -232 0 -333 -25 -795 -194 -460 -169 -585 -200 -805 -200 -220 0
-345 31 -805 200 -462 169 -563 194 -795 194 -232 0 -333 -25 -795 -194 -460
-169 -585 -200 -805 -200 -220 0 -345 31 -805 200 -298 109 -405 143 -531 170
-130 27 -331 34 -445 15z"/>
<path d="M1485 10344 c-212 -31 -314 -60 -705 -204 -387 -142 -569 -190 -721
-190 l-59 0 0 -296 0 -296 78 7 c192 17 349 60 715 196 432 160 594 200 807
200 213 0 375 -40 807 -200 426 -158 576 -195 793 -195 217 0 367 37 793 195
432 160 594 200 807 200 213 0 375 -40 807 -200 426 -158 576 -195 793 -195
217 0 367 37 793 195 432 160 594 200 807 200 213 0 375 -40 807 -200 426
-158 576 -195 793 -195 217 0 367 37 793 195 432 160 594 200 807 200 213 0
375 -40 807 -200 366 -136 523 -179 716 -196 l77 -7 0 296 0 296 -59 0 c-152
0 -334 48 -721 190 -480 176 -590 204 -820 204 -230 0 -340 -28 -820 -204
-424 -156 -565 -190 -780 -190 -215 0 -356 34 -780 190 -480 176 -590 204
-820 204 -230 0 -340 -28 -820 -204 -424 -156 -565 -190 -780 -190 -215 0
-356 34 -780 190 -480 176 -590 204 -820 204 -230 0 -340 -28 -820 -204 -424
-156 -565 -190 -780 -190 -215 0 -355 34 -780 190 -335 123 -431 154 -568 181
-93 19 -304 32 -367 23z"/>
<path d="M1455 9299 c-169 -22 -301 -62 -770 -234 -247 -91 -441 -142 -580
-152 l-100 -8 -3 -294 -2 -293 72 7 c194 17 350 59 703 190 307 113 381 138
515 170 261 62 506 46 805 -52 44 -14 193 -67 330 -118 412 -153 560 -189 775
-189 215 0 363 36 775 189 307 113 381 138 515 170 261 62 506 46 805 -52 44
-14 193 -67 330 -118 412 -153 560 -189 775 -189 215 0 363 36 775 189 307
113 381 138 515 170 208 49 412 49 620 0 134 -32 208 -57 515 -170 412 -153
560 -189 775 -189 215 0 363 36 775 189 307 113 381 138 515 170 261 62 506
46 805 -52 44 -14 193 -67 330 -118 353 -131 509 -173 703 -190 l72 -7 -2 293
-3 294 -100 8 c-139 10 -333 61 -580 152 -380 140 -459 166 -579 196 -175 42
-311 55 -444 41 -199 -22 -311 -55 -807 -237 -567 -208 -803 -208 -1370 0
-380 140 -459 166 -579 196 -175 42 -311 55 -444 41 -199 -22 -311 -55 -807
-237 -567 -208 -803 -208 -1370 0 -380 140 -459 166 -579 196 -175 42 -311 55
-444 41 -199 -22 -311 -55 -807 -237 -115 -42 -271 -92 -345 -111 -332 -83
-567 -57 -1025 111 -383 141 -459 166 -580 195 -198 48 -325 58 -480 39z"/>
<path d="M1500 8264 c-161 -15 -335 -64 -673 -188 -399 -147 -508 -179 -667
-197 -52 -6 -110 -13 -127 -15 l-33 -5 0 -290 0 -290 63 6 c228 22 334 51 732
198 451 166 583 199 805 199 222 0 354 -33 805 -199 440 -163 576 -196 795
-196 219 0 355 33 795 196 451 166 583 199 805 199 222 0 354 -33 805 -199
440 -163 576 -196 795 -196 219 0 355 33 795 196 451 166 583 199 805 199 222
0 354 -33 805 -199 440 -163 576 -196 795 -196 219 0 355 33 795 196 451 166
583 199 805 199 222 0 354 -33 805 -199 398 -147 504 -176 733 -198 l62 -6 0
290 0 290 -32 5 c-18 2 -76 9 -128 15 -159 18 -268 50 -667 197 -415 153 -557
187 -773 187 -211 0 -360 -35 -736 -174 -508 -188 -635 -220 -864 -220 -229 0
-356 32 -864 220 -376 139 -525 174 -736 174 -211 0 -360 -35 -736 -174 -508
-188 -635 -220 -864 -220 -229 0 -356 32 -864 220 -376 139 -525 174 -736 174
-211 0 -360 -35 -736 -174 -508 -188 -635 -220 -864 -220 -229 0 -356 32 -864
220 -235 87 -381 132 -504 155 -84 16 -260 26 -332 20z"/>
<path d="M1490 7219 c-172 -16 -303 -52 -680 -191 -306 -112 -370 -133 -495
-163 -81 -19 -256 -45 -305 -45 -7 0 -10 -96 -10 -289 l0 -288 73 4 c174 11
341 57 712 193 395 146 514 180 708 200 126 14 265 2 422 -35 127 -30 203 -55
500 -165 429 -158 568 -192 785 -192 217 0 356 34 785 192 297 110 373 135
500 165 225 53 405 53 630 0 127 -30 203 -55 500 -165 429 -158 568 -192 785
-192 217 0 356 34 785 192 297 110 373 135 500 165 225 53 405 53 630 0 127
-30 203 -55 500 -165 429 -158 568 -192 785 -192 217 0 356 34 785 192 395
146 514 180 708 200 126 14 265 2 422 -35 127 -30 203 -55 500 -165 371 -136
538 -182 713 -193 l72 -4 0 288 c0 193 -3 289 -10 289 -49 0 -224 26 -305 45
-125 30 -189 51 -495 163 -441 162 -570 194 -790 194 -220 0 -349 -32 -790
-194 -306 -112 -370 -133 -495 -163 -225 -53 -405 -53 -630 0 -125 30 -189 51
-495 163 -441 162 -570 194 -790 194 -220 0 -349 -32 -790 -194 -306 -112
-370 -133 -495 -163 -157 -37 -296 -49 -422 -35 -194 20 -303 51 -703 198
-441 162 -570 194 -790 194 -220 0 -349 -32 -790 -194 -306 -112 -370 -133
-495 -163 -225 -53 -405 -53 -630 0 -125 30 -190 51 -497 164 -471 173 -659
213 -898 190z"/>
<path d="M1385 6164 c-132 -23 -284 -71 -583 -181 -395 -145 -591 -197 -768
-205 -34 -1 -32 -2 16 -8 l55 -7 -52 -1 -53 -2 0 -265 0 -265 58 -2 57 -1 -60
-7 -60 -7 61 -1 c146 -4 341 47 742 195 330 121 479 166 624 187 274 41 453 7
980 -187 434 -160 583 -197 798 -197 215 0 364 37 798 197 527 194 706 228
980 187 145 -21 294 -66 624 -187 434 -160 583 -197 798 -197 215 0 364 37
798 197 527 194 706 228 980 187 145 -21 294 -66 624 -187 434 -160 583 -197
798 -197 215 0 364 37 798 197 330 121 479 166 624 187 274 41 453 7 980 -187
401 -148 596 -199 742 -195 l61 1 -60 7 -60 7 58 1 57 2 0 265 0 265 -52 2
-53 1 55 7 c48 6 50 7 16 8 -177 8 -373 60 -768 205 -434 160 -583 197 -798
197 -215 0 -364 -37 -798 -197 -330 -121 -479 -166 -624 -187 -274 -41 -453
-7 -980 187 -434 160 -583 197 -798 197 -215 0 -364 -37 -798 -197 -330 -121
-479 -166 -624 -187 -274 -41 -453 -7 -980 187 -434 160 -583 197 -798 197
-215 0 -364 -37 -798 -197 -330 -121 -479 -166 -624 -187 -274 -41 -453 -7
-980 187 -441 163 -585 198 -807 196 -69 0 -162 -7 -206 -15z m273 -1 c-32 -2
-84 -2 -115 0 -32 2 -6 3 57 3 63 0 89 -1 58 -3z m3200 0 c-32 -2 -84 -2 -115
0 -32 2 -6 3 57 3 63 0 89 -1 58 -3z m3200 0 c-32 -2 -84 -2 -115 0 -32 2 -6
3 57 3 63 0 89 -1 58 -3z m3200 0 c-32 -2 -84 -2 -115 0 -32 2 -6 3 57 3 63 0
89 -1 58 -3z m-9795 -10 c-13 -2 -33 -2 -45 0 -13 2 -3 4 22 4 25 0 35 -2 23
-4z m320 0 c-13 -2 -33 -2 -45 0 -13 2 -3 4 22 4 25 0 35 -2 23 -4z m2880 0
c-13 -2 -33 -2 -45 0 -13 2 -3 4 22 4 25 0 35 -2 23 -4z m320 0 c-13 -2 -33
-2 -45 0 -13 2 -3 4 22 4 25 0 35 -2 23 -4z m2880 0 c-13 -2 -33 -2 -45 0 -13
2 -3 4 22 4 25 0 35 -2 23 -4z m320 0 c-13 -2 -33 -2 -45 0 -13 2 -3 4 22 4
25 0 35 -2 23 -4z m2880 0 c-13 -2 -33 -2 -45 0 -13 2 -3 4 22 4 25 0 35 -2
23 -4z m320 0 c-13 -2 -33 -2 -45 0 -13 2 -3 4 22 4 25 0 35 -2 23 -4z m-9996
-9 c-3 -3 -12 -4 -19 -1 -8 3 -5 6 6 6 11 1 17 -2 13 -5z m450 0 c-3 -3 -12
-4 -19 -1 -8 3 -5 6 6 6 11 1 17 -2 13 -5z m2750 0 c-3 -3 -12 -4 -19 -1 -8 3
-5 6 6 6 11 1 17 -2 13 -5z m450 0 c-3 -3 -12 -4 -19 -1 -8 3 -5 6 6 6 11 1
17 -2 13 -5z m2750 0 c-3 -3 -12 -4 -19 -1 -8 3 -5 6 6 6 11 1 17 -2 13 -5z
m450 0 c-3 -3 -12 -4 -19 -1 -8 3 -5 6 6 6 11 1 17 -2 13 -5z m2750 0 c-3 -3
-12 -4 -19 -1 -8 3 -5 6 6 6 11 1 17 -2 13 -5z m450 0 c-3 -3 -12 -4 -19 -1
-8 3 -5 6 6 6 11 1 17 -2 13 -5z m-10094 -11 c-7 -2 -21 -2 -30 0 -10 3 -4 5
12 5 17 0 24 -2 18 -5z m550 0 c-7 -2 -21 -2 -30 0 -10 3 -4 5 12 5 17 0 24
-2 18 -5z m2650 0 c-7 -2 -21 -2 -30 0 -10 3 -4 5 12 5 17 0 24 -2 18 -5z
m550 0 c-7 -2 -21 -2 -30 0 -10 3 -4 5 12 5 17 0 24 -2 18 -5z m2650 0 c-7 -2
-21 -2 -30 0 -10 3 -4 5 12 5 17 0 24 -2 18 -5z m550 0 c-7 -2 -21 -2 -30 0
-10 3 -4 5 12 5 17 0 24 -2 18 -5z m2650 0 c-7 -2 -21 -2 -30 0 -10 3 -4 5 12
5 17 0 24 -2 18 -5z m550 0 c-7 -2 -21 -2 -30 0 -10 3 -4 5 12 5 17 0 24 -2
18 -5z m-10218 -13 c-11 -5 -29 -8 -40 -8 -16 0 -15 2 5 8 34 11 60 11 35 0z
m685 0 c20 -6 21 -8 5 -8 -11 0 -29 3 -40 8 -25 11 1 11 35 0z m2515 0 c-11
-5 -29 -8 -40 -8 -16 0 -15 2 5 8 34 11 60 11 35 0z m685 0 c20 -6 21 -8 5 -8
-11 0 -29 3 -40 8 -25 11 1 11 35 0z m2515 0 c-11 -5 -29 -8 -40 -8 -16 0 -15
2 5 8 34 11 60 11 35 0z m685 0 c20 -6 21 -8 5 -8 -11 0 -29 3 -40 8 -25 11 1
11 35 0z m2515 0 c-11 -5 -29 -8 -40 -8 -16 0 -15 2 5 8 34 11 60 11 35 0z
m685 0 c20 -6 21 -8 5 -8 -11 0 -29 3 -40 8 -25 11 1 11 35 0z m-10351 -14
c-8 -7 -282 -96 -286 -92 -2 2 58 24 134 50 127 42 163 52 152 42z m933 -42
c76 -26 137 -48 135 -50 -4 -4 -278 85 -286 92 -11 10 21 1 151 -42z m2267 42
c-8 -7 -282 -96 -286 -92 -2 2 58 24 134 50 127 42 163 52 152 42z m933 -42
c76 -26 137 -48 135 -50 -4 -4 -278 85 -286 92 -11 10 21 1 151 -42z m2267 42
c-8 -7 -282 -96 -286 -92 -2 2 58 24 134 50 127 42 163 52 152 42z m933 -42
c76 -26 137 -48 135 -50 -4 -4 -278 85 -286 92 -11 10 21 1 151 -42z m2267 42
c-8 -7 -282 -96 -286 -92 -2 2 58 24 134 50 127 42 163 52 152 42z m933 -42
c76 -26 137 -48 135 -50 -4 -4 -278 85 -286 92 -11 10 21 1 151 -42z m-10917
-94 c-22 -10 -47 -19 -55 -19 -8 0 5 9 30 19 58 24 77 24 25 0z m1589 -6 c17
-7 24 -13 16 -13 -8 0 -33 9 -55 20 -43 20 -11 15 39 -7z m1611 6 c-22 -10
-47 -19 -55 -19 -8 0 5 9 30 19 58 24 77 24 25 0z m1589 -6 c17 -7 24 -13 16
-13 -8 0 -33 9 -55 20 -43 20 -11 15 39 -7z m1611 6 c-22 -10 -47 -19 -55 -19
-8 0 5 9 30 19 58 24 77 24 25 0z m1589 -6 c17 -7 24 -13 16 -13 -8 0 -33 9
-55 20 -43 20 -11 15 39 -7z m1611 6 c-22 -10 -47 -19 -55 -19 -8 0 5 9 30 19
58 24 77 24 25 0z m1589 -6 c17 -7 24 -13 16 -13 -8 0 -33 9 -55 20 -43 20
-11 15 39 -7z m-11349 -54 c-22 -10 -47 -19 -55 -19 -8 0 5 9 30 19 58 24 77
24 25 0z m1909 -6 c17 -7 24 -13 16 -13 -8 0 -33 9 -55 20 -43 20 -11 15 39
-7z m1291 6 c-22 -10 -47 -19 -55 -19 -8 0 5 9 30 19 58 24 77 24 25 0z m1909
-6 c17 -7 24 -13 16 -13 -8 0 -33 9 -55 20 -43 20 -11 15 39 -7z m1291 6 c-22
-10 -47 -19 -55 -19 -8 0 5 9 30 19 58 24 77 24 25 0z m1909 -6 c17 -7 24 -13
16 -13 -8 0 -33 9 -55 20 -43 20 -11 15 39 -7z m1291 6 c-22 -10 -47 -19 -55
-19 -8 0 5 9 30 19 58 24 77 24 25 0z m1909 -6 c17 -7 24 -13 16 -13 -8 0 -33
9 -55 20 -43 20 -11 15 39 -7z m-11594 -24 c-8 -5 -22 -9 -30 -9 -10 0 -8 3 5
9 27 12 43 12 25 0z m2065 0 c13 -6 15 -9 5 -9 -8 0 -22 4 -30 9 -18 12 -2 12
25 0z m1135 0 c-8 -5 -22 -9 -30 -9 -10 0 -8 3 5 9 27 12 43 12 25 0z m2065 0
c13 -6 15 -9 5 -9 -8 0 -22 4 -30 9 -18 12 -2 12 25 0z m1135 0 c-8 -5 -22 -9
-30 -9 -10 0 -8 3 5 9 27 12 43 12 25 0z m2065 0 c13 -6 15 -9 5 -9 -8 0 -22
4 -30 9 -18 12 -2 12 25 0z m1135 0 c-8 -5 -22 -9 -30 -9 -10 0 -8 3 5 9 27
12 43 12 25 0z m2065 0 c13 -6 15 -9 5 -9 -8 0 -22 4 -30 9 -18 12 -2 12 25 0z
m-11725 -20 c-8 -5 -22 -9 -30 -9 -10 0 -8 3 5 9 27 12 43 12 25 0z m2185 0
c13 -6 15 -9 5 -9 -8 0 -22 4 -30 9 -18 12 -2 12 25 0z m1015 0 c-8 -5 -22 -9
-30 -9 -10 0 -8 3 5 9 27 12 43 12 25 0z m2185 0 c13 -6 15 -9 5 -9 -8 0 -22
4 -30 9 -18 12 -2 12 25 0z m1015 0 c-8 -5 -22 -9 -30 -9 -10 0 -8 3 5 9 27
12 43 12 25 0z m2185 0 c13 -6 15 -9 5 -9 -8 0 -22 4 -30 9 -18 12 -2 12 25 0z
m1015 0 c-8 -5 -22 -9 -30 -9 -10 0 -8 3 5 9 27 12 43 12 25 0z m2185 0 c13
-6 15 -9 5 -9 -8 0 -22 4 -30 9 -18 12 -2 12 25 0z m-11845 -19 c-8 -5 -31
-11 -50 -14 -35 -6 -35 -6 5 8 46 15 67 18 45 6z m2345 -13 c13 -5 9 -6 -15
-2 -19 4 -42 10 -50 15 -18 11 34 1 65 -13z m855 13 c-8 -5 -31 -11 -50 -14
-35 -6 -35 -6 5 8 46 15 67 18 45 6z m2345 -13 c13 -5 9 -6 -15 -2 -19 4 -42
10 -50 15 -18 11 34 1 65 -13z m855 13 c-8 -5 -31 -11 -50 -14 -35 -6 -35 -6
5 8 46 15 67 18 45 6z m2345 -13 c13 -5 9 -6 -15 -2 -19 4 -42 10 -50 15 -18
11 34 1 65 -13z m855 13 c-8 -5 -31 -11 -50 -14 -35 -6 -35 -6 5 8 46 15 67
18 45 6z m2345 -13 c13 -5 9 -6 -15 -2 -19 4 -42 10 -50 15 -18 11 34 1 65
-13z m-12055 -18 c-34 -11 -60 -11 -35 0 11 5 29 8 40 8 16 0 15 -2 -5 -8z
m2535 0 c25 -11 -1 -11 -35 0 -20 6 -21 8 -5 8 11 0 29 -3 40 -8z m665 0 c-34
-11 -60 -11 -35 0 11 5 29 8 40 8 16 0 15 -2 -5 -8z m2535 0 c25 -11 -1 -11
-35 0 -20 6 -21 8 -5 8 11 0 29 -3 40 -8z m665 0 c-34 -11 -60 -11 -35 0 11 5
29 8 40 8 16 0 15 -2 -5 -8z m2535 0 c25 -11 -1 -11 -35 0 -20 6 -21 8 -5 8
11 0 29 -3 40 -8z m665 0 c-34 -11 -60 -11 -35 0 11 5 29 8 40 8 16 0 15 -2
-5 -8z m2535 0 c25 -11 -1 -11 -35 0 -20 6 -21 8 -5 8 11 0 29 -3 40 -8z
m-12220 -20 c-16 -4 -39 -8 -50 -8 -16 0 -15 2 5 8 14 4 36 8 50 8 22 0 22 -1
-5 -8z m2715 0 c20 -6 21 -8 5 -8 -11 0 -33 4 -50 8 -27 7 -27 8 -5 8 14 0 36
-4 50 -8z m485 0 c-16 -4 -39 -8 -50 -8 -16 0 -15 2 5 8 14 4 36 8 50 8 22 0
22 -1 -5 -8z m2715 0 c20 -6 21 -8 5 -8 -11 0 -33 4 -50 8 -27 7 -27 8 -5 8
14 0 36 -4 50 -8z m485 0 c-16 -4 -39 -8 -50 -8 -16 0 -15 2 5 8 14 4 36 8 50
8 22 0 22 -1 -5 -8z m2715 0 c20 -6 21 -8 5 -8 -11 0 -33 4 -50 8 -27 7 -27 8
-5 8 14 0 36 -4 50 -8z m485 0 c-16 -4 -39 -8 -50 -8 -16 0 -15 2 5 8 14 4 36
8 50 8 22 0 22 -1 -5 -8z m2715 0 c20 -6 21 -8 5 -8 -11 0 -33 4 -50 8 -27 7
-27 8 -5 8 14 0 36 -4 50 -8z m-12407 -17 c-13 -2 -33 -2 -45 0 -13 2 -3 4 22
4 25 0 35 -2 23 -4z m2900 0 c-13 -2 -33 -2 -45 0 -13 2 -3 4 22 4 25 0 35 -2
23 -4z m300 0 c-13 -2 -33 -2 -45 0 -13 2 -3 4 22 4 25 0 35 -2 23 -4z m2900
0 c-13 -2 -33 -2 -45 0 -13 2 -3 4 22 4 25 0 35 -2 23 -4z m300 0 c-13 -2 -33
-2 -45 0 -13 2 -3 4 22 4 25 0 35 -2 23 -4z m2900 0 c-13 -2 -33 -2 -45 0 -13
2 -3 4 22 4 25 0 35 -2 23 -4z m300 0 c-13 -2 -33 -2 -45 0 -13 2 -3 4 22 4
25 0 35 -2 23 -4z m2900 0 c-13 -2 -33 -2 -45 0 -13 2 -3 4 22 4 25 0 35 -2
23 -4z m-9420 -10 c-29 -2 -77 -2 -105 0 -29 2 -6 3 52 3 58 0 81 -1 53 -3z
m3200 0 c-29 -2 -77 -2 -105 0 -29 2 -6 3 52 3 58 0 81 -1 53 -3z m3200 0
c-29 -2 -77 -2 -105 0 -29 2 -6 3 52 3 58 0 81 -1 53 -3z m-8000 -140 c-29 -2
-77 -2 -105 0 -29 2 -6 3 52 3 58 0 81 -1 53 -3z m3200 0 c-29 -2 -77 -2 -105
0 -29 2 -6 3 52 3 58 0 81 -1 53 -3z m3200 0 c-29 -2 -77 -2 -105 0 -29 2 -6
3 52 3 58 0 81 -1 53 -3z m3200 0 c-29 -2 -77 -2 -105 0 -29 2 -6 3 52 3 58 0
81 -1 53 -3z m-9780 -10 c-13 -2 -33 -2 -45 0 -13 2 -3 4 22 4 25 0 35 -2 23
-4z m300 0 c-13 -2 -33 -2 -45 0 -13 2 -3 4 22 4 25 0 35 -2 23 -4z m2900 0
c-13 -2 -33 -2 -45 0 -13 2 -3 4 22 4 25 0 35 -2 23 -4z m300 0 c-13 -2 -33
-2 -45 0 -13 2 -3 4 22 4 25 0 35 -2 23 -4z m2900 0 c-13 -2 -33 -2 -45 0 -13
2 -3 4 22 4 25 0 35 -2 23 -4z m300 0 c-13 -2 -33 -2 -45 0 -13 2 -3 4 22 4
25 0 35 -2 23 -4z m2900 0 c-13 -2 -33 -2 -45 0 -13 2 -3 4 22 4 25 0 35 -2
23 -4z m300 0 c-13 -2 -33 -2 -45 0 -13 2 -3 4 22 4 25 0 35 -2 23 -4z m-9993
-13 c-14 -4 -36 -8 -50 -8 -22 0 -22 1 5 8 17 4 39 8 50 8 16 0 15 -2 -5 -8z
m485 0 c27 -7 27 -8 5 -8 -14 0 -36 4 -50 8 -20 6 -21 8 -5 8 11 0 34 -4 50
-8z m2715 0 c-14 -4 -36 -8 -50 -8 -22 0 -22 1 5 8 17 4 39 8 50 8 16 0 15 -2
-5 -8z m485 0 c27 -7 27 -8 5 -8 -14 0 -36 4 -50 8 -20 6 -21 8 -5 8 11 0 34
-4 50 -8z m2715 0 c-14 -4 -36 -8 -50 -8 -22 0 -22 1 5 8 17 4 39 8 50 8 16 0
15 -2 -5 -8z m485 0 c27 -7 27 -8 5 -8 -14 0 -36 4 -50 8 -20 6 -21 8 -5 8 11
0 34 -4 50 -8z m2715 0 c-14 -4 -36 -8 -50 -8 -22 0 -22 1 5 8 17 4 39 8 50 8
16 0 15 -2 -5 -8z m485 0 c27 -7 27 -8 5 -8 -14 0 -36 4 -50 8 -20 6 -21 8 -5
8 11 0 34 -4 50 -8z m-10180 -20 c-11 -5 -29 -8 -40 -8 -16 0 -15 2 5 8 34 11
60 11 35 0z m665 0 c20 -6 21 -8 5 -8 -11 0 -29 3 -40 8 -25 11 1 11 35 0z
m2535 0 c-11 -5 -29 -8 -40 -8 -16 0 -15 2 5 8 34 11 60 11 35 0z m665 0 c20
-6 21 -8 5 -8 -11 0 -29 3 -40 8 -25 11 1 11 35 0z m2535 0 c-11 -5 -29 -8
-40 -8 -16 0 -15 2 5 8 34 11 60 11 35 0z m665 0 c20 -6 21 -8 5 -8 -11 0 -29
3 -40 8 -25 11 1 11 35 0z m2535 0 c-11 -5 -29 -8 -40 -8 -16 0 -15 2 5 8 34
11 60 11 35 0z m665 0 c20 -6 21 -8 5 -8 -11 0 -29 3 -40 8 -25 11 1 11 35 0z
m-10369 -26 c-25 -8 -47 -12 -49 -9 -5 5 56 23 78 23 8 0 -5 -6 -29 -14z m879
-5 c18 -11 -34 -1 -65 13 -13 5 -9 6 15 2 19 -4 42 -10 50 -15z m2321 5 c-25
-8 -47 -12 -49 -9 -5 5 56 23 78 23 8 0 -5 -6 -29 -14z m879 -5 c18 -11 -34
-1 -65 13 -13 5 -9 6 15 2 19 -4 42 -10 50 -15z m2321 5 c-25 -8 -47 -12 -49
-9 -5 5 56 23 78 23 8 0 -5 -6 -29 -14z m879 -5 c18 -11 -34 -1 -65 13 -13 5
-9 6 15 2 19 -4 42 -10 50 -15z m2321 5 c-25 -8 -47 -12 -49 -9 -5 5 56 23 78
23 8 0 -5 -6 -29 -14z m879 -5 c18 -11 -34 -1 -65 13 -13 5 -9 6 15 2 19 -4
42 -10 50 -15z m-10555 -19 c-27 -12 -43 -12 -25 0 8 5 22 9 30 9 10 0 8 -3
-5 -9z m1015 0 c18 -12 2 -12 -25 0 -13 6 -15 9 -5 9 8 0 22 -4 30 -9z m2185
0 c-27 -12 -43 -12 -25 0 8 5 22 9 30 9 10 0 8 -3 -5 -9z m1015 0 c18 -12 2
-12 -25 0 -13 6 -15 9 -5 9 8 0 22 -4 30 -9z m2185 0 c-27 -12 -43 -12 -25 0
8 5 22 9 30 9 10 0 8 -3 -5 -9z m1015 0 c18 -12 2 -12 -25 0 -13 6 -15 9 -5 9
8 0 22 -4 30 -9z m2185 0 c-27 -12 -43 -12 -25 0 8 5 22 9 30 9 10 0 8 -3 -5
-9z m1015 0 c18 -12 2 -12 -25 0 -13 6 -15 9 -5 9 8 0 22 -4 30 -9z m-10675
-20 c-27 -12 -43 -12 -25 0 8 5 22 9 30 9 10 0 8 -3 -5 -9z m1135 0 c18 -12 2
-12 -25 0 -13 6 -15 9 -5 9 8 0 22 -4 30 -9z m2065 0 c-27 -12 -43 -12 -25 0
8 5 22 9 30 9 10 0 8 -3 -5 -9z m1135 0 c18 -12 2 -12 -25 0 -13 6 -15 9 -5 9
8 0 22 -4 30 -9z m2065 0 c-27 -12 -43 -12 -25 0 8 5 22 9 30 9 10 0 8 -3 -5
-9z m1135 0 c18 -12 2 -12 -25 0 -13 6 -15 9 -5 9 8 0 22 -4 30 -9z m2065 0
c-27 -12 -43 -12 -25 0 8 5 22 9 30 9 10 0 8 -3 -5 -9z m1135 0 c18 -12 2 -12
-25 0 -13 6 -15 9 -5 9 8 0 22 -4 30 -9z m-10806 -24 c-50 -22 -82 -27 -39 -7
22 11 47 20 55 20 8 0 1 -6 -16 -13z m1291 -7 c22 -10 29 -16 16 -13 -37 10
-88 33 -71 33 8 0 33 -9 55 -20z m1909 7 c-50 -22 -82 -27 -39 -7 22 11 47 20
55 20 8 0 1 -6 -16 -13z m1291 -7 c22 -10 29 -16 16 -13 -37 10 -88 33 -71 33
8 0 33 -9 55 -20z m1909 7 c-50 -22 -82 -27 -39 -7 22 11 47 20 55 20 8 0 1
-6 -16 -13z m1291 -7 c22 -10 29 -16 16 -13 -37 10 -88 33 -71 33 8 0 33 -9
55 -20z m1909 7 c-50 -22 -82 -27 -39 -7 22 11 47 20 55 20 8 0 1 -6 -16 -13z
m1291 -7 c22 -10 29 -16 16 -13 -37 10 -88 33 -71 33 8 0 33 -9 55 -20z
m-11051 -53 c-50 -22 -82 -27 -39 -7 22 11 47 20 55 20 8 0 1 -6 -16 -13z
m1611 -7 c22 -10 29 -16 16 -13 -37 10 -88 33 -71 33 8 0 33 -9 55 -20z m1589
7 c-50 -22 -82 -27 -39 -7 22 11 47 20 55 20 8 0 1 -6 -16 -13z m1611 -7 c22
-10 29 -16 16 -13 -37 10 -88 33 -71 33 8 0 33 -9 55 -20z m1589 7 c-50 -22
-82 -27 -39 -7 22 11 47 20 55 20 8 0 1 -6 -16 -13z m1611 -7 c22 -10 29 -16
16 -13 -37 10 -88 33 -71 33 8 0 33 -9 55 -20z m1589 7 c-50 -22 -82 -27 -39
-7 22 11 47 20 55 20 8 0 1 -6 -16 -13z m1611 -7 c22 -10 29 -16 16 -13 -37
10 -88 33 -71 33 8 0 33 -9 55 -20z m-11372 -54 c-48 -21 -255 -86 -259 -82
-2 2 56 24 129 49 131 44 192 60 130 33z m2025 -34 c72 -24 130 -46 128 -48
-4 -5 -213 62 -259 83 -49 22 -16 13 131 -35z m1175 34 c-48 -21 -255 -86
-259 -82 -2 2 56 24 129 49 131 44 192 60 130 33z m2025 -34 c72 -24 130 -46
128 -48 -4 -5 -213 62 -259 83 -49 22 -16 13 131 -35z m1175 34 c-48 -21 -255
-86 -259 -82 -2 2 56 24 129 49 131 44 192 60 130 33z m2025 -34 c72 -24 130
-46 128 -48 -4 -5 -213 62 -259 83 -49 22 -16 13 131 -35z m1175 34 c-48 -21
-255 -86 -259 -82 -2 2 56 24 129 49 131 44 192 60 130 33z m2025 -34 c72 -24
130 -46 128 -48 -4 -5 -213 62 -259 83 -49 22 -16 13 131 -35z m-11918 -61
c-34 -11 -60 -11 -35 0 11 5 29 8 40 8 16 0 15 -2 -5 -8z m2515 0 c25 -11 -1
-11 -35 0 -20 6 -21 8 -5 8 11 0 29 -3 40 -8z m685 0 c-34 -11 -60 -11 -35 0
11 5 29 8 40 8 16 0 15 -2 -5 -8z m2515 0 c25 -11 -1 -11 -35 0 -20 6 -21 8
-5 8 11 0 29 -3 40 -8z m685 0 c-34 -11 -60 -11 -35 0 11 5 29 8 40 8 16 0 15
-2 -5 -8z m2515 0 c25 -11 -1 -11 -35 0 -20 6 -21 8 -5 8 11 0 29 -3 40 -8z
m685 0 c-34 -11 -60 -11 -35 0 11 5 29 8 40 8 16 0 15 -2 -5 -8z m2515 0 c25
-11 -1 -11 -35 0 -20 6 -21 8 -5 8 11 0 29 -3 40 -8z m-12182 -17 c-7 -2 -21
-2 -30 0 -10 3 -4 5 12 5 17 0 24 -2 18 -5z m2650 0 c-7 -2 -21 -2 -30 0 -10
3 -4 5 12 5 17 0 24 -2 18 -5z m550 0 c-7 -2 -21 -2 -30 0 -10 3 -4 5 12 5 17
0 24 -2 18 -5z m2650 0 c-7 -2 -21 -2 -30 0 -10 3 -4 5 12 5 17 0 24 -2 18 -5z
m550 0 c-7 -2 -21 -2 -30 0 -10 3 -4 5 12 5 17 0 24 -2 18 -5z m2650 0 c-7 -2
-21 -2 -30 0 -10 3 -4 5 12 5 17 0 24 -2 18 -5z m550 0 c-7 -2 -21 -2 -30 0
-10 3 -4 5 12 5 17 0 24 -2 18 -5z m2650 0 c-7 -2 -21 -2 -30 0 -10 3 -4 5 12
5 17 0 24 -2 18 -5z m-12306 -9 c-3 -3 -12 -4 -19 -1 -8 3 -5 6 6 6 11 1 17
-2 13 -5z m2750 0 c-3 -3 -12 -4 -19 -1 -8 3 -5 6 6 6 11 1 17 -2 13 -5z m450
0 c-3 -3 -12 -4 -19 -1 -8 3 -5 6 6 6 11 1 17 -2 13 -5z m2750 0 c-3 -3 -12
-4 -19 -1 -8 3 -5 6 6 6 11 1 17 -2 13 -5z m450 0 c-3 -3 -12 -4 -19 -1 -8 3
-5 6 6 6 11 1 17 -2 13 -5z m2750 0 c-3 -3 -12 -4 -19 -1 -8 3 -5 6 6 6 11 1
17 -2 13 -5z m450 0 c-3 -3 -12 -4 -19 -1 -8 3 -5 6 6 6 11 1 17 -2 13 -5z
m2750 0 c-3 -3 -12 -4 -19 -1 -8 3 -5 6 6 6 11 1 17 -2 13 -5z m-12399 -11
c-10 -2 -28 -2 -40 0 -13 2 -5 4 17 4 22 1 32 -1 23 -4z m2870 0 c-10 -2 -28
-2 -40 0 -13 2 -5 4 17 4 22 1 32 -1 23 -4z m330 0 c-10 -2 -28 -2 -40 0 -13
2 -5 4 17 4 22 1 32 -1 23 -4z m2870 0 c-10 -2 -28 -2 -40 0 -13 2 -5 4 17 4
22 1 32 -1 23 -4z m330 0 c-10 -2 -28 -2 -40 0 -13 2 -5 4 17 4 22 1 32 -1 23
-4z m2870 0 c-10 -2 -28 -2 -40 0 -13 2 -5 4 17 4 22 1 32 -1 23 -4z m330 0
c-10 -2 -28 -2 -40 0 -13 2 -5 4 17 4 22 1 32 -1 23 -4z m2870 0 c-10 -2 -28
-2 -40 0 -13 2 -5 4 17 4 22 1 32 -1 23 -4z m-9400 -10 c-32 -2 -84 -2 -115 0
-32 2 -6 3 57 3 63 0 89 -1 58 -3z m3200 0 c-32 -2 -84 -2 -115 0 -32 2 -6 3
57 3 63 0 89 -1 58 -3z m3200 0 c-32 -2 -84 -2 -115 0 -32 2 -6 3 57 3 63 0
89 -1 58 -3z"/>
</g>
</svg>
