<svg width="2197" height="114" viewBox="0 0 2197 114" fill="none" xmlns="http://www.w3.org/2000/svg">
<g clip-path="url(#clip0)">
<rect width="2197" height="114" fill="white"/>
<mask id="mask0" mask-type="alpha" maskUnits="userSpaceOnUse" x="0" y="0" width="2209" height="199">
<g style="mix-blend-mode:difference" opacity="0.5" clip-path="url(#clip1)">
<path d="M243.558 10.0247C215.409 10.4721 193.439 11.1184 129.589 13.3884C66.4249 15.6419 36.2162 16.3875 9.09695 16.4041H0V21.3088V26.23L13.2163 26.114C46.343 25.8157 71.7458 25.1529 138.171 22.7835C211.805 20.1654 237.894 19.5524 274.625 19.5524C311.356 19.5524 337.445 20.1654 411.079 22.7835C487.974 25.5175 511.661 26.0809 549.25 26.0809C586.839 26.0809 610.526 25.5175 687.421 22.7835C761.055 20.1654 787.144 19.5524 823.875 19.5524C860.606 19.5524 886.695 20.1654 960.329 22.7835C1037.22 25.5175 1060.91 26.0809 1098.5 26.0809C1136.09 26.0809 1159.78 25.5175 1236.67 22.7835C1310.3 20.1654 1336.39 19.5524 1373.12 19.5524C1409.86 19.5524 1435.95 20.1654 1509.58 22.7835C1586.47 25.5175 1610.16 26.0809 1647.75 26.0809C1685.34 26.0809 1709.03 25.5175 1785.92 22.7835C1859.55 20.1654 1885.64 19.5524 1922.37 19.5524C1959.11 19.5524 1985.2 20.1654 2058.83 22.7835C2125.25 25.1529 2150.66 25.8157 2183.78 26.114L2197 26.23V21.3088V16.4041H2188.07C2159.75 16.3875 2131.95 15.675 2058.83 13.0902C1979.53 10.2899 1962.2 9.87562 1922.37 9.87562C1882.55 9.87562 1865.22 10.2899 1785.92 13.0902C1706.97 15.8904 1685.51 16.4041 1647.75 16.4041C1609.99 16.4041 1588.53 15.8904 1509.58 13.0902C1430.28 10.2899 1412.95 9.87562 1373.12 9.87562C1333.3 9.87562 1315.97 10.2899 1236.67 13.0902C1157.72 15.8904 1136.26 16.4041 1098.5 16.4041C1060.74 16.4041 1039.28 15.8904 960.329 13.0902C881.031 10.2899 863.696 9.87562 823.875 9.87562C784.054 9.87562 766.719 10.2899 687.421 13.0902C608.466 15.8904 587.011 16.4041 549.25 16.4041C511.489 16.4041 490.034 15.8904 411.079 13.0902C359.93 11.2841 341.565 10.7207 319.938 10.2733C297.625 9.82591 263.125 9.70992 243.558 10.0247Z" fill="#939393"/>
<path d="M254.886 27.1082C218.499 27.6219 200.991 28.1024 133.88 30.4884C67.4548 32.8413 36.2162 33.6367 10.1268 33.6367H0V38.5413V43.446L13.388 43.33C46.343 43.0483 73.2905 42.3358 136.111 40.0823C210.26 37.4312 238.066 36.7684 274.625 36.7684C311.184 36.7684 338.99 37.4312 413.139 40.0823C486.258 42.7003 512.004 43.3134 549.25 43.3134C586.496 43.3134 612.242 42.7003 685.361 40.0823C759.51 37.4312 787.316 36.7684 823.875 36.7684C860.434 36.7684 888.24 37.4312 962.389 40.0823C1035.51 42.7003 1061.25 43.3134 1098.5 43.3134C1135.75 43.3134 1161.49 42.7003 1234.61 40.0823C1308.76 37.4312 1336.57 36.7684 1373.12 36.7684C1409.68 36.7684 1437.49 37.4312 1511.64 40.0823C1584.76 42.7003 1610.5 43.3134 1647.75 43.3134C1685 43.3134 1710.74 42.7003 1783.86 40.0823C1858.01 37.4312 1885.82 36.7684 1922.37 36.7684C1958.93 36.7684 1986.74 37.4312 2060.89 40.0823C2123.71 42.3358 2150.66 43.0483 2183.78 43.33L2197 43.446V38.5413V33.6367H2186.87C2160.78 33.6367 2129.55 32.8413 2063.12 30.4884C1980.73 27.5721 1961.85 27.1082 1922.37 27.1082C1882.9 27.1082 1864.02 27.5721 1781.63 30.4884C1708.85 33.0733 1684.65 33.6367 1647.75 33.6367C1610.85 33.6367 1586.65 33.0733 1513.87 30.4884C1431.48 27.5721 1412.6 27.1082 1373.12 27.1082C1333.65 27.1082 1314.77 27.5721 1232.38 30.4884C1159.6 33.0733 1135.4 33.6367 1098.5 33.6367C1061.6 33.6367 1037.4 33.0733 964.62 30.4884C882.233 27.5721 863.352 27.1082 823.875 27.1082C784.398 27.1082 765.517 27.5721 683.13 30.4884C610.354 33.0733 586.153 33.6367 549.25 33.6367C512.347 33.6367 488.318 33.0733 415.37 30.4884C357.871 28.4503 341.393 27.9367 317.878 27.4893C301.916 27.1745 265.7 26.9591 254.886 27.1082Z" fill="#939393"/>
<path d="M249.737 44.4236C220.73 44.7881 198.073 45.4509 117.574 48.3009C75.1786 49.8088 41.8803 50.6538 18.0223 50.8195L0.858203 50.9521L0.343281 55.8236L0 60.6785L12.3581 60.5625C45.6564 60.2809 72.4323 59.5849 133.021 57.4143C185.715 55.5419 198.417 55.1277 221.416 54.5974C266.215 53.5701 308.267 53.8352 359.587 55.4591C367.139 55.691 392.714 56.5692 416.229 57.4143C486.944 59.9495 512.347 60.546 549.25 60.546C586.153 60.546 611.556 59.9495 682.271 57.4143C734.965 55.5419 747.667 55.1277 770.666 54.5974C815.465 53.5701 857.517 53.8352 908.837 55.4591C916.389 55.691 941.964 56.5692 965.478 57.4143C1036.19 59.9495 1061.6 60.546 1098.5 60.546C1135.4 60.546 1160.81 59.9495 1231.52 57.4143C1284.22 55.5419 1296.92 55.1277 1319.92 54.5974C1355.62 53.7855 1390.63 53.7855 1426.33 54.5974C1449.33 55.1277 1462.03 55.5419 1514.73 57.4143C1585.44 59.9495 1610.85 60.546 1647.75 60.546C1684.65 60.546 1710.06 59.9495 1780.77 57.4143C1833.47 55.5419 1846.17 55.1277 1869.17 54.5974C1913.96 53.5701 1956.02 53.8352 2007.34 55.4591C2014.89 55.691 2040.46 56.5692 2063.98 57.4143C2124.57 59.5849 2151.34 60.2809 2184.64 60.5625L2197 60.6785L2196.66 55.8236L2196.14 50.9521L2178.98 50.8195C2155.12 50.6538 2121.82 49.8088 2079.43 48.3009C2014.2 45.9811 2000.64 45.5503 1980.05 45.0532C1950.01 44.3573 1926.67 44.1419 1903.84 44.3739C1869.68 44.7384 1850.46 45.2852 1765.32 48.3009C1668 51.7474 1627.5 51.7474 1530.18 48.3009C1464.95 45.9811 1451.39 45.5503 1430.8 45.0532C1400.76 44.3573 1377.42 44.1419 1354.59 44.3739C1320.43 44.7384 1301.21 45.2852 1216.07 48.3009C1118.75 51.7474 1078.25 51.7474 980.926 48.3009C915.703 45.9811 902.143 45.5503 881.546 45.0532C851.509 44.3573 828.166 44.1419 805.338 44.3739C771.181 44.7384 751.958 45.2852 666.824 48.3009C647.085 48.9968 620.309 49.8253 607.608 50.1402C550.623 51.5154 510.288 51.0846 431.676 48.3009C365.938 45.9646 352.893 45.5503 332.125 45.0698C298.14 44.2745 276.341 44.1088 249.737 44.4236Z" fill="#939393"/>
<path d="M257.461 61.5733C229.827 61.8219 199.961 62.6338 141.947 64.6884C73.4622 67.1242 54.7534 67.6544 27.4625 67.9527C18.5372 68.0521 8.58203 68.1681 5.66414 68.2012L0 68.2841V73.0893V77.8945L10.8134 77.7951C49.9474 77.4306 68.1413 76.9501 136.454 74.5143C213.864 71.7637 236.521 71.2169 274.625 71.2169C312.729 71.2169 335.386 71.7637 412.796 74.5143C488.318 77.2152 511.661 77.762 549.25 77.762C586.839 77.762 610.182 77.2152 685.704 74.5143C763.114 71.7637 785.771 71.2169 823.875 71.2169C861.979 71.2169 884.636 71.7637 962.046 74.5143C1037.57 77.2152 1060.91 77.762 1098.5 77.762C1136.09 77.762 1159.43 77.2152 1234.95 74.5143C1312.36 71.7637 1335.02 71.2169 1373.12 71.2169C1411.23 71.2169 1433.89 71.7637 1511.3 74.5143C1586.82 77.2152 1610.16 77.762 1647.75 77.762C1685.34 77.762 1708.68 77.2152 1784.2 74.5143C1861.61 71.7637 1884.27 71.2169 1922.37 71.2169C1960.48 71.2169 1983.14 71.7637 2060.55 74.5143C2128.86 76.9501 2147.05 77.4306 2186.36 77.7951L2197 77.8945V73.0893V68.2841L2191.51 68.2012C2188.42 68.1681 2178.46 68.0521 2169.54 67.9527C2142.25 67.6544 2123.54 67.1242 2055.05 64.6884C1983.82 62.1533 1959.45 61.5899 1922.37 61.5899C1886.16 61.5899 1860.58 62.1698 1796.05 64.473C1708.85 67.5881 1687.06 68.1184 1647.75 68.1184C1608.44 68.1184 1586.65 67.5881 1499.45 64.473C1434.92 62.1698 1409.34 61.5899 1373.12 61.5899C1336.91 61.5899 1311.33 62.1698 1246.8 64.473C1159.6 67.5881 1137.81 68.1184 1098.5 68.1184C1059.19 68.1184 1037.4 67.5881 950.202 64.473C885.666 62.1698 860.091 61.5899 823.875 61.5899C787.659 61.5899 762.084 62.1698 697.547 64.473C610.354 67.5881 588.556 68.1184 549.25 68.1184C509.944 68.1184 488.146 67.5881 400.952 64.473C360.617 63.0315 335.557 62.2858 314.446 61.9047C300.028 61.6396 269.819 61.4739 257.461 61.5733Z" fill="#939393"/>
<path d="M255.745 78.8887C226.222 79.1538 203.737 79.7503 139.029 82.0535C86.5069 83.9093 75.5219 84.2573 54.0668 84.7544C40.1639 85.0692 10.1268 85.5 1.71641 85.5C0.514922 85.5 0 87.0907 0 90.2887V95.0608L12.5298 94.9945C42.3952 94.8122 71.0592 94.05 134.738 91.7965C202.536 89.3774 222.961 88.814 256.259 88.4826C277.886 88.2506 301.744 88.4495 328.692 89.0625C350.49 89.5596 363.535 89.9739 414.512 91.7965C488.146 94.4146 512.004 94.9779 549.25 94.9779C586.496 94.9779 610.354 94.4146 683.988 91.7965C734.965 89.9739 748.01 89.5596 769.808 89.0625C808.427 88.1843 839.323 88.1843 877.942 89.0625C899.74 89.5596 912.785 89.9739 963.762 91.7965C1037.4 94.4146 1061.25 94.9779 1098.5 94.9779C1135.75 94.9779 1159.6 94.4146 1233.24 91.7965C1284.22 89.9739 1297.26 89.5596 1319.06 89.0625C1357.68 88.1843 1388.57 88.1843 1427.19 89.0625C1448.99 89.5596 1462.03 89.9739 1513.01 91.7965C1586.65 94.4146 1610.5 94.9779 1647.75 94.9779C1685 94.9779 1708.85 94.4146 1782.49 91.7965C1850.29 89.3774 1870.71 88.814 1904.01 88.4826C1925.64 88.2506 1949.49 88.4495 1976.44 89.0625C1998.24 89.5596 2011.28 89.9739 2062.26 91.7965C2125.94 94.05 2154.6 94.8122 2184.64 94.9945L2197 95.0608V90.2887C2197 87.0907 2196.49 85.5 2195.28 85.5C2186.87 85.5 2156.84 85.0692 2142.93 84.7544C2121.48 84.2573 2110.49 83.9093 2057.97 82.0535C1982.28 79.3692 1960.14 78.839 1922.37 78.839C1884.61 78.839 1862.47 79.3692 1786.78 82.0535C1734.26 83.9093 1723.27 84.2573 1701.82 84.7544C1663.2 85.6326 1632.3 85.6326 1593.68 84.7544C1572.23 84.2573 1561.24 83.9093 1508.72 82.0535C1433.03 79.3692 1410.89 78.839 1373.12 78.839C1335.36 78.839 1313.22 79.3692 1237.53 82.0535C1185.01 83.9093 1174.02 84.2573 1152.57 84.7544C1125.62 85.3675 1101.76 85.5663 1080.13 85.3343C1046.84 85.0029 1028.13 84.4893 959.471 82.0535C883.778 79.3692 861.636 78.839 823.875 78.839C786.114 78.839 763.972 79.3692 688.279 82.0535C635.757 83.9093 624.772 84.2573 603.317 84.7544C564.698 85.6326 533.802 85.6326 495.183 84.7544C473.728 84.2573 462.571 83.9093 409.878 82.037C329.035 79.1704 296.767 78.5076 255.745 78.8887Z" fill="#939393"/>
<path d="M237.723 96.3698C215.066 96.7509 188.977 97.5463 137.657 99.3689C69.8585 101.772 36.217 102.633 5.83656 102.766C0.000781298 102.782 0.344063 102.799 8.58281 102.898L18.023 103.014L9.09773 103.031L0.000781298 103.064V107.455V111.846L9.95594 111.879L19.7395 111.896L9.44102 112.012L-0.857422 112.128L9.61266 112.144C34.6722 112.211 68.1421 111.365 136.97 108.913C193.611 106.908 219.186 106.163 244.074 105.815C291.103 105.135 321.827 105.699 412.282 108.913C486.774 111.564 512.348 112.177 549.251 112.177C586.154 112.177 611.728 111.564 686.22 108.913C776.675 105.699 807.398 105.135 854.428 105.815C879.316 106.163 904.89 106.908 961.532 108.913C1036.02 111.564 1061.6 112.177 1098.5 112.177C1135.4 112.177 1160.98 111.564 1235.47 108.913C1325.92 105.699 1356.65 105.135 1403.68 105.815C1428.57 106.163 1454.14 106.908 1510.78 108.913C1585.27 111.564 1610.85 112.177 1647.75 112.177C1684.65 112.177 1710.23 111.564 1784.72 108.913C1841.36 106.908 1866.94 106.163 1891.82 105.815C1938.85 105.135 1969.58 105.699 2060.03 108.913C2128.86 111.365 2162.33 112.211 2187.39 112.144L2197.86 112.128L2187.56 112.012L2177.26 111.896L2187.22 111.879L2197 111.846V107.455V103.064L2188.08 103.031L2178.98 103.014L2188.42 102.898C2196.66 102.799 2197 102.782 2191.17 102.766C2160.78 102.633 2127.14 101.772 2059.35 99.3689C1984.85 96.7178 1959.28 96.1047 1922.38 96.1047C1885.47 96.1047 1859.9 96.7178 1785.41 99.3689C1728.77 101.374 1703.19 102.12 1678.3 102.467C1631.27 103.147 1600.55 102.583 1510.1 99.3689C1435.6 96.7178 1410.03 96.1047 1373.13 96.1047C1336.22 96.1047 1310.65 96.7178 1236.16 99.3689C1179.52 101.374 1153.94 102.12 1129.05 102.467C1082.02 103.147 1051.3 102.583 960.845 99.3689C886.353 96.7178 860.779 96.1047 823.876 96.1047C786.973 96.1047 761.399 96.7178 686.907 99.3689C630.265 101.374 604.691 102.12 579.803 102.467C532.773 103.147 502.05 102.583 411.595 99.3689C335.902 96.6681 311.185 96.0881 273.081 96.1213C261.238 96.1213 245.275 96.2373 237.723 96.3698ZM284.581 96.3864C279.088 96.4195 270.163 96.4195 264.842 96.3864C259.35 96.3532 263.812 96.3367 274.626 96.3367C285.439 96.3367 289.902 96.3532 284.581 96.3864ZM833.831 96.3864C828.338 96.4195 819.413 96.4195 814.092 96.3864C808.6 96.3532 813.062 96.3367 823.876 96.3367C834.689 96.3367 839.152 96.3532 833.831 96.3864ZM1383.08 96.3864C1377.59 96.4195 1368.66 96.4195 1363.34 96.3864C1357.85 96.3532 1362.31 96.3367 1373.13 96.3367C1383.94 96.3367 1388.4 96.3532 1383.08 96.3864ZM1932.33 96.3864C1926.84 96.4195 1917.91 96.4195 1912.59 96.3864C1907.1 96.3532 1911.56 96.3367 1922.38 96.3367C1933.19 96.3367 1937.65 96.3532 1932.33 96.3864ZM251.111 96.5521C248.88 96.5852 245.447 96.5852 243.387 96.5521C241.156 96.5189 242.872 96.4858 247.163 96.4858C251.454 96.4858 253.171 96.5189 251.111 96.5521ZM306.036 96.5521C303.805 96.5852 300.372 96.5852 298.312 96.5521C296.081 96.5189 297.797 96.4858 302.088 96.4858C306.379 96.4858 308.096 96.5189 306.036 96.5521ZM800.361 96.5521C798.13 96.5852 794.697 96.5852 792.637 96.5521C790.406 96.5189 792.122 96.4858 796.413 96.4858C800.704 96.4858 802.421 96.5189 800.361 96.5521ZM855.286 96.5521C853.055 96.5852 849.622 96.5852 847.562 96.5521C845.331 96.5189 847.047 96.4858 851.338 96.4858C855.629 96.4858 857.346 96.5189 855.286 96.5521ZM1349.61 96.5521C1347.38 96.5852 1343.95 96.5852 1341.89 96.5521C1339.66 96.5189 1341.37 96.4858 1345.66 96.4858C1349.95 96.4858 1351.67 96.5189 1349.61 96.5521ZM1404.54 96.5521C1402.3 96.5852 1398.87 96.5852 1396.81 96.5521C1394.58 96.5189 1396.3 96.4858 1400.59 96.4858C1404.88 96.4858 1406.6 96.5189 1404.54 96.5521ZM1898.86 96.5521C1896.63 96.5852 1893.2 96.5852 1891.14 96.5521C1888.91 96.5189 1890.62 96.4858 1894.91 96.4858C1899.2 96.4858 1900.92 96.5189 1898.86 96.5521ZM1953.79 96.5521C1951.55 96.5852 1948.12 96.5852 1946.06 96.5521C1943.83 96.5189 1945.55 96.4858 1949.84 96.4858C1954.13 96.4858 1955.85 96.5189 1953.79 96.5521ZM238.066 96.7012C237.551 96.7509 236.007 96.7675 234.805 96.7178C233.432 96.6681 233.947 96.6184 235.835 96.6184C237.723 96.6018 238.753 96.6515 238.066 96.7012ZM315.305 96.7012C314.79 96.7509 313.245 96.7675 312.043 96.7178C310.67 96.6681 311.185 96.6184 313.073 96.6184C314.961 96.6018 315.991 96.6515 315.305 96.7012ZM787.316 96.7012C786.801 96.7509 785.257 96.7675 784.055 96.7178C782.682 96.6681 783.197 96.6184 785.085 96.6184C786.973 96.6018 788.003 96.6515 787.316 96.7012ZM864.555 96.7012C864.04 96.7509 862.495 96.7675 861.293 96.7178C859.92 96.6681 860.435 96.6184 862.323 96.6184C864.211 96.6018 865.241 96.6515 864.555 96.7012ZM1336.57 96.7012C1336.05 96.7509 1334.51 96.7675 1333.31 96.7178C1331.93 96.6681 1332.45 96.6184 1334.34 96.6184C1336.22 96.6018 1337.25 96.6515 1336.57 96.7012ZM1413.8 96.7012C1413.29 96.7509 1411.75 96.7675 1410.54 96.7178C1409.17 96.6681 1409.69 96.6184 1411.57 96.6184C1413.46 96.6018 1414.49 96.6515 1413.8 96.7012ZM1885.82 96.7012C1885.3 96.7509 1883.76 96.7675 1882.56 96.7178C1881.18 96.6681 1881.7 96.6184 1883.59 96.6184C1885.47 96.6018 1886.5 96.6515 1885.82 96.7012ZM1963.05 96.7012C1962.54 96.7509 1961 96.7675 1959.79 96.7178C1958.42 96.6681 1958.94 96.6184 1960.82 96.6184C1962.71 96.6018 1963.74 96.6515 1963.05 96.7012ZM230.514 96.8835C229.313 96.9166 226.91 96.9166 225.365 96.8835C223.649 96.8338 224.678 96.8006 227.425 96.8006C230.343 96.8006 231.544 96.8338 230.514 96.8835ZM324.917 96.8835C323.715 96.9166 321.312 96.9166 319.767 96.8835C318.051 96.8338 319.081 96.8006 321.827 96.8006C324.745 96.8006 325.946 96.8338 324.917 96.8835ZM779.764 96.8835C778.563 96.9166 776.16 96.9166 774.615 96.8835C772.899 96.8338 773.928 96.8006 776.675 96.8006C779.593 96.8006 780.794 96.8338 779.764 96.8835ZM874.167 96.8835C872.965 96.9166 870.562 96.9166 869.017 96.8835C867.301 96.8338 868.331 96.8006 871.077 96.8006C873.995 96.8006 875.196 96.8338 874.167 96.8835ZM1329.01 96.8835C1327.81 96.9166 1325.41 96.9166 1323.86 96.8835C1322.15 96.8338 1323.18 96.8006 1325.92 96.8006C1328.84 96.8006 1330.04 96.8338 1329.01 96.8835ZM1423.42 96.8835C1422.22 96.9166 1419.81 96.9166 1418.27 96.8835C1416.55 96.8338 1417.58 96.8006 1420.33 96.8006C1423.24 96.8006 1424.45 96.8338 1423.42 96.8835ZM1878.26 96.8835C1877.06 96.9166 1874.66 96.9166 1873.12 96.8835C1871.4 96.8338 1872.43 96.8006 1875.17 96.8006C1878.09 96.8006 1879.29 96.8338 1878.26 96.8835ZM1972.67 96.8835C1971.47 96.9166 1969.06 96.9166 1967.52 96.8835C1965.8 96.8338 1966.83 96.8006 1969.58 96.8006C1972.49 96.8006 1973.7 96.8338 1972.67 96.8835ZM218.843 97.0989C216.955 97.1817 213.865 97.2314 211.977 97.2314C209.231 97.2314 209.402 97.1983 212.835 97.0989C218.671 96.9166 223.134 96.9166 218.843 97.0989ZM336.416 97.0989C339.849 97.1983 340.021 97.2314 337.275 97.2314C335.387 97.2314 332.297 97.1817 330.409 97.0989C326.118 96.9166 330.581 96.9166 336.416 97.0989ZM768.093 97.0989C766.205 97.1817 763.115 97.2314 761.227 97.2314C758.481 97.2314 758.652 97.1983 762.085 97.0989C767.921 96.9166 772.384 96.9166 768.093 97.0989ZM885.666 97.0989C889.099 97.1983 889.271 97.2314 886.525 97.2314C884.637 97.2314 881.547 97.1817 879.659 97.0989C875.368 96.9166 879.831 96.9166 885.666 97.0989ZM1317.34 97.0989C1315.45 97.1817 1312.37 97.2314 1310.48 97.2314C1307.73 97.2314 1307.9 97.1983 1311.34 97.0989C1317.17 96.9166 1321.63 96.9166 1317.34 97.0989ZM1434.92 97.0989C1438.35 97.1983 1438.52 97.2314 1435.77 97.2314C1433.89 97.2314 1430.8 97.1817 1428.91 97.0989C1424.62 96.9166 1429.08 96.9166 1434.92 97.0989ZM1866.59 97.0989C1864.7 97.1817 1861.62 97.2314 1859.73 97.2314C1856.98 97.2314 1857.15 97.1983 1860.59 97.0989C1866.42 96.9166 1870.88 96.9166 1866.59 97.0989ZM1984.17 97.0989C1987.6 97.1983 1987.77 97.2314 1985.02 97.2314C1983.14 97.2314 1980.05 97.1817 1978.16 97.0989C1973.87 96.9166 1978.33 96.9166 1984.17 97.0989ZM207.514 97.3309C206.141 97.4468 159.112 98.9216 158.425 98.8553C158.082 98.8221 168.38 98.4576 181.425 98.0268C203.223 97.3309 209.402 97.1652 207.514 97.3309ZM367.655 98.0268C380.7 98.4576 391.17 98.8221 390.827 98.8553C390.14 98.9216 343.11 97.4468 341.737 97.3309C339.849 97.1652 345.342 97.3143 367.655 98.0268ZM756.764 97.3309C755.391 97.4468 708.362 98.9216 707.675 98.8553C707.332 98.8221 717.63 98.4576 730.675 98.0268C752.473 97.3309 758.652 97.1652 756.764 97.3309ZM916.905 98.0268C929.95 98.4576 940.42 98.8221 940.077 98.8553C939.39 98.9216 892.36 97.4468 890.987 97.3309C889.099 97.1652 894.592 97.3143 916.905 98.0268ZM1306.01 97.3309C1304.64 97.4468 1257.61 98.9216 1256.93 98.8553C1256.58 98.8221 1266.88 98.4576 1279.92 98.0268C1301.72 97.3309 1307.9 97.1652 1306.01 97.3309ZM1466.16 98.0268C1479.2 98.4576 1489.67 98.8221 1489.33 98.8553C1488.64 98.9216 1441.61 97.4468 1440.24 97.3309C1438.35 97.1652 1443.84 97.3143 1466.16 98.0268ZM1855.26 97.3309C1853.89 97.4468 1806.86 98.9216 1806.18 98.8553C1805.83 98.8221 1816.13 98.4576 1829.18 98.0268C1850.97 97.3309 1857.15 97.1652 1855.26 97.3309ZM2015.41 98.0268C2028.45 98.4576 2038.92 98.8221 2038.58 98.8553C2037.89 98.9216 1990.86 97.4468 1989.49 97.3309C1987.6 97.1652 1993.09 97.3143 2015.41 98.0268ZM141.604 99.5843C137.828 99.75 133.537 99.8992 132.164 99.8992C130.791 99.8992 133.022 99.75 137.313 99.5843C147.268 99.1867 150.53 99.1867 141.604 99.5843ZM414.341 99.6838C417.259 99.7998 418.461 99.8992 417.088 99.8992C415.714 99.8992 411.423 99.75 407.647 99.5678C400.267 99.2364 405.759 99.3192 414.341 99.6838ZM690.854 99.5843C687.078 99.75 682.787 99.8992 681.414 99.8992C680.041 99.8992 682.272 99.75 686.563 99.5843C696.518 99.1867 699.78 99.1867 690.854 99.5843ZM963.591 99.6838C966.509 99.7998 967.711 99.8992 966.338 99.8992C964.964 99.8992 960.673 99.75 956.897 99.5678C949.517 99.2364 955.009 99.3192 963.591 99.6838ZM1240.1 99.5843C1236.33 99.75 1232.04 99.8992 1230.66 99.8992C1229.29 99.8992 1231.52 99.75 1235.81 99.5843C1245.77 99.1867 1249.03 99.1867 1240.1 99.5843ZM1512.84 99.6838C1515.76 99.7998 1516.96 99.8992 1515.59 99.8992C1514.21 99.8992 1509.92 99.75 1506.15 99.5678C1498.77 99.2364 1504.26 99.3192 1512.84 99.6838ZM1789.35 99.5843C1785.58 99.75 1781.29 99.8992 1779.91 99.8992C1778.54 99.8992 1780.77 99.75 1785.06 99.5843C1795.02 99.1867 1798.28 99.1867 1789.35 99.5843ZM2062.09 99.6838C2065.01 99.7998 2066.21 99.8992 2064.84 99.8992C2063.46 99.8992 2059.17 99.75 2055.4 99.5678C2048.02 99.2364 2053.51 99.3192 2062.09 99.6838ZM114.142 100.579C110.366 100.744 106.075 100.893 104.702 100.893C103.328 100.893 105.56 100.744 109.851 100.579C119.806 100.181 123.067 100.181 114.142 100.579ZM441.804 100.678C444.722 100.794 445.923 100.893 444.55 100.893C443.177 100.893 438.886 100.744 435.11 100.562C427.729 100.231 433.222 100.313 441.804 100.678ZM663.392 100.579C659.616 100.744 655.325 100.893 653.952 100.893C652.578 100.893 654.81 100.744 659.101 100.579C669.056 100.181 672.317 100.181 663.392 100.579ZM991.054 100.678C993.972 100.794 995.173 100.893 993.8 100.893C992.427 100.893 988.136 100.744 984.36 100.562C976.979 100.231 982.472 100.313 991.054 100.678ZM1212.64 100.579C1208.87 100.744 1204.57 100.893 1203.2 100.893C1201.83 100.893 1204.06 100.744 1208.35 100.579C1218.31 100.181 1221.57 100.181 1212.64 100.579ZM1540.3 100.678C1543.22 100.794 1544.42 100.893 1543.05 100.893C1541.68 100.893 1537.39 100.744 1533.61 100.562C1526.23 100.231 1531.72 100.313 1540.3 100.678ZM1761.89 100.579C1758.12 100.744 1753.82 100.893 1752.45 100.893C1751.08 100.893 1753.31 100.744 1757.6 100.579C1767.56 100.181 1770.82 100.181 1761.89 100.579ZM2089.55 100.678C2092.47 100.794 2093.67 100.893 2092.3 100.893C2090.93 100.893 2086.64 100.744 2082.86 100.562C2075.48 100.231 2080.97 100.313 2089.55 100.678ZM99.5523 101.076C98.1792 101.158 95.7763 101.225 94.4031 101.225C92.6867 101.225 93.03 101.175 95.2613 101.076C99.8956 100.877 102.642 100.877 99.5523 101.076ZM453.99 101.076C456.222 101.175 456.565 101.225 454.848 101.225C453.475 101.225 451.072 101.158 449.699 101.076C446.61 100.877 449.356 100.877 453.99 101.076ZM648.802 101.076C647.429 101.158 645.026 101.225 643.653 101.225C641.937 101.225 642.28 101.175 644.511 101.076C649.146 100.877 651.892 100.877 648.802 101.076ZM1003.24 101.076C1005.47 101.175 1005.81 101.225 1004.1 101.225C1002.73 101.225 1000.32 101.158 998.949 101.076C995.86 100.877 998.606 100.877 1003.24 101.076ZM1198.05 101.076C1196.68 101.158 1194.28 101.225 1192.9 101.225C1191.19 101.225 1191.53 101.175 1193.76 101.076C1198.4 100.877 1201.14 100.877 1198.05 101.076ZM1552.49 101.076C1554.72 101.175 1555.06 101.225 1553.35 101.225C1551.98 101.225 1549.57 101.158 1548.2 101.076C1545.11 100.877 1547.86 100.877 1552.49 101.076ZM1747.3 101.076C1745.93 101.158 1743.53 101.225 1742.15 101.225C1740.44 101.225 1740.78 101.175 1743.01 101.076C1747.65 100.877 1750.39 100.877 1747.3 101.076ZM2101.74 101.076C2103.97 101.175 2104.31 101.225 2102.6 101.225C2101.23 101.225 2098.82 101.158 2097.45 101.076C2094.36 100.877 2097.11 100.877 2101.74 101.076ZM89.2539 101.407C87.8808 101.49 85.4778 101.556 84.1047 101.556C82.3883 101.556 82.7316 101.506 84.9629 101.407C89.5972 101.208 92.3434 101.208 89.2539 101.407ZM464.289 101.407C466.52 101.506 466.863 101.556 465.147 101.556C463.774 101.556 461.371 101.49 459.998 101.407C456.908 101.208 459.654 101.208 464.289 101.407ZM638.504 101.407C637.131 101.49 634.728 101.556 633.355 101.556C631.638 101.556 631.982 101.506 634.213 101.407C638.847 101.208 641.593 101.208 638.504 101.407ZM1013.54 101.407C1015.77 101.506 1016.11 101.556 1014.4 101.556C1013.02 101.556 1010.62 101.49 1009.25 101.407C1006.16 101.208 1008.9 101.208 1013.54 101.407ZM1187.75 101.407C1186.38 101.49 1183.98 101.556 1182.6 101.556C1180.89 101.556 1181.23 101.506 1183.46 101.407C1188.1 101.208 1190.84 101.208 1187.75 101.407ZM1562.79 101.407C1565.02 101.506 1565.36 101.556 1563.65 101.556C1562.27 101.556 1559.87 101.49 1558.5 101.407C1555.41 101.208 1558.15 101.208 1562.79 101.407ZM1737 101.407C1735.63 101.49 1733.23 101.556 1731.85 101.556C1730.14 101.556 1730.48 101.506 1732.71 101.407C1737.35 101.208 1740.09 101.208 1737 101.407ZM2112.04 101.407C2114.27 101.506 2114.61 101.556 2112.9 101.556C2111.52 101.556 2109.12 101.49 2107.75 101.407C2104.66 101.208 2107.4 101.208 2112.04 101.407ZM78.9555 101.722C77.5823 101.805 73.6346 101.904 70.3734 101.954C64.366 102.053 64.366 102.053 71.2316 101.821C79.1271 101.573 82.7316 101.523 78.9555 101.722ZM481.453 101.937C483.684 102.02 482.998 102.037 478.878 101.97C475.617 101.904 471.669 101.805 470.296 101.722C467.207 101.54 476.132 101.705 481.453 101.937ZM628.206 101.722C626.832 101.805 622.885 101.904 619.623 101.954C613.616 102.053 613.616 102.053 620.482 101.821C628.377 101.573 631.982 101.523 628.206 101.722ZM1030.7 101.937C1032.93 102.02 1032.25 102.037 1028.13 101.97C1024.87 101.904 1020.92 101.805 1019.55 101.722C1016.46 101.54 1025.38 101.705 1030.7 101.937ZM1177.46 101.722C1176.08 101.805 1172.13 101.904 1168.87 101.954C1162.87 102.053 1162.87 102.053 1169.73 101.821C1177.63 101.573 1181.23 101.523 1177.46 101.722ZM1579.95 101.937C1582.18 102.02 1581.5 102.037 1577.38 101.97C1574.12 101.904 1570.17 101.805 1568.8 101.722C1565.71 101.54 1574.63 101.705 1579.95 101.937ZM1726.71 101.722C1725.33 101.805 1721.38 101.904 1718.12 101.954C1712.12 102.053 1712.12 102.053 1718.98 101.821C1726.88 101.573 1730.48 101.523 1726.71 101.722ZM2129.2 101.937C2131.43 102.02 2130.75 102.037 2126.63 101.97C2123.37 101.904 2119.42 101.805 2118.05 101.722C2114.96 101.54 2123.88 101.705 2129.2 101.937ZM60.075 102.236C54.2392 102.418 49.7766 102.418 54.0676 102.236C55.9556 102.153 59.0452 102.103 60.9332 102.103C63.6795 102.103 63.5078 102.136 60.075 102.236ZM495.184 102.236C499.475 102.418 495.012 102.418 489.177 102.236C485.744 102.136 485.572 102.103 488.318 102.103C490.206 102.103 493.296 102.153 495.184 102.236ZM609.325 102.236C603.489 102.418 599.027 102.418 603.318 102.236C605.206 102.153 608.295 102.103 610.183 102.103C612.929 102.103 612.758 102.136 609.325 102.236ZM1044.43 102.236C1048.73 102.418 1044.26 102.418 1038.43 102.236C1034.99 102.136 1034.82 102.103 1037.57 102.103C1039.46 102.103 1042.55 102.153 1044.43 102.236ZM1158.58 102.236C1152.74 102.418 1148.28 102.418 1152.57 102.236C1154.46 102.153 1157.55 102.103 1159.43 102.103C1162.18 102.103 1162.01 102.136 1158.58 102.236ZM1593.68 102.236C1597.98 102.418 1593.51 102.418 1587.68 102.236C1584.24 102.136 1584.07 102.103 1586.82 102.103C1588.71 102.103 1591.8 102.153 1593.68 102.236ZM1707.83 102.236C1701.99 102.418 1697.53 102.418 1701.82 102.236C1703.71 102.153 1706.8 102.103 1708.68 102.103C1711.43 102.103 1711.26 102.136 1707.83 102.236ZM2142.93 102.236C2147.23 102.418 2142.76 102.418 2136.93 102.236C2133.49 102.136 2133.32 102.103 2136.07 102.103C2137.96 102.103 2141.05 102.153 2142.93 102.236ZM45.4855 102.567C42.7393 102.633 38.7916 102.699 36.9035 102.699C34.1573 102.699 34.3289 102.666 37.7617 102.567C40.1647 102.501 43.9408 102.434 46.3438 102.434C50.1198 102.434 50.1198 102.451 45.4855 102.567ZM511.49 102.567C514.923 102.666 515.094 102.699 512.348 102.699C510.46 102.699 506.684 102.633 503.766 102.567C499.132 102.451 499.132 102.434 502.908 102.434C505.311 102.434 509.087 102.501 511.49 102.567ZM594.736 102.567C591.989 102.633 588.042 102.699 586.154 102.699C583.407 102.699 583.579 102.666 587.012 102.567C589.415 102.501 593.191 102.434 595.594 102.434C599.37 102.434 599.37 102.451 594.736 102.567ZM1060.74 102.567C1064.17 102.666 1064.34 102.699 1061.6 102.699C1059.71 102.699 1055.93 102.633 1053.02 102.567C1048.38 102.451 1048.38 102.434 1052.16 102.434C1054.56 102.434 1058.34 102.501 1060.74 102.567ZM1143.99 102.567C1141.24 102.633 1137.29 102.699 1135.4 102.699C1132.66 102.699 1132.83 102.666 1136.26 102.567C1138.66 102.501 1142.44 102.434 1144.84 102.434C1148.62 102.434 1148.62 102.451 1143.99 102.567ZM1609.99 102.567C1613.42 102.666 1613.59 102.699 1610.85 102.699C1608.96 102.699 1605.18 102.633 1602.27 102.567C1597.63 102.451 1597.63 102.434 1601.41 102.434C1603.81 102.434 1607.59 102.501 1609.99 102.567ZM1693.24 102.567C1690.49 102.633 1686.54 102.699 1684.65 102.699C1681.91 102.699 1682.08 102.666 1685.51 102.567C1687.91 102.501 1691.69 102.434 1694.09 102.434C1697.87 102.434 1697.87 102.451 1693.24 102.567ZM2159.24 102.567C2162.67 102.666 2162.84 102.699 2160.1 102.699C2158.21 102.699 2154.43 102.633 2151.52 102.567C2146.88 102.451 2146.88 102.434 2150.66 102.434C2153.06 102.434 2156.84 102.501 2159.24 102.567ZM29.6946 102.849C27.4633 102.882 24.0305 102.882 21.9708 102.849C19.7395 102.815 21.4559 102.782 25.7469 102.782C30.0379 102.782 31.7543 102.815 29.6946 102.849ZM527.452 102.849C525.221 102.882 521.788 102.882 519.729 102.849C517.497 102.815 519.214 102.782 523.505 102.782C527.796 102.782 529.512 102.815 527.452 102.849ZM578.945 102.849C576.713 102.882 573.281 102.882 571.221 102.849C568.989 102.815 570.706 102.782 574.997 102.782C579.288 102.782 581.004 102.815 578.945 102.849ZM1076.7 102.849C1074.47 102.882 1071.04 102.882 1068.98 102.849C1066.75 102.815 1068.46 102.782 1072.75 102.782C1077.05 102.782 1078.76 102.815 1076.7 102.849ZM1128.19 102.849C1125.96 102.882 1122.53 102.882 1120.47 102.849C1118.24 102.815 1119.96 102.782 1124.25 102.782C1128.54 102.782 1130.25 102.815 1128.19 102.849ZM1625.95 102.849C1623.72 102.882 1620.29 102.882 1618.23 102.849C1616 102.815 1617.71 102.782 1622 102.782C1626.3 102.782 1628.01 102.815 1625.95 102.849ZM1677.44 102.849C1675.21 102.882 1671.78 102.882 1669.72 102.849C1667.49 102.815 1669.21 102.782 1673.5 102.782C1677.79 102.782 1679.5 102.815 1677.44 102.849ZM2175.2 102.849C2172.97 102.882 2169.54 102.882 2167.48 102.849C2165.25 102.815 2166.96 102.782 2171.25 102.782C2175.55 102.782 2177.26 102.815 2175.2 102.849ZM558.348 103.014C553.37 103.047 545.131 103.047 540.325 103.014C535.348 102.981 539.296 102.965 549.251 102.965C559.206 102.965 563.154 102.981 558.348 103.014ZM1107.6 103.014C1102.62 103.047 1094.38 103.047 1089.58 103.014C1084.6 102.981 1088.55 102.965 1098.5 102.965C1108.46 102.965 1112.4 102.981 1107.6 103.014ZM1656.85 103.014C1651.87 103.047 1643.63 103.047 1638.83 103.014C1633.85 102.981 1637.8 102.965 1647.75 102.965C1657.71 102.965 1661.65 102.981 1656.85 103.014ZM283.723 105.334C278.745 105.367 270.506 105.367 265.7 105.334C260.723 105.301 264.671 105.284 274.626 105.284C284.581 105.284 288.529 105.301 283.723 105.334ZM832.973 105.334C827.995 105.367 819.756 105.367 814.951 105.334C809.973 105.301 813.921 105.284 823.876 105.284C833.831 105.284 837.779 105.301 832.973 105.334ZM1382.22 105.334C1377.25 105.367 1369.01 105.367 1364.2 105.334C1359.22 105.301 1363.17 105.284 1373.13 105.284C1383.08 105.284 1387.03 105.301 1382.22 105.334ZM1931.47 105.334C1926.5 105.367 1918.26 105.367 1913.45 105.334C1908.47 105.301 1912.42 105.284 1922.38 105.284C1932.33 105.284 1936.28 105.301 1931.47 105.334ZM252.827 105.5C250.596 105.533 247.163 105.533 245.104 105.5C242.872 105.467 244.589 105.433 248.88 105.433C253.171 105.433 254.887 105.467 252.827 105.5ZM304.32 105.5C302.088 105.533 298.655 105.533 296.596 105.5C294.364 105.467 296.081 105.433 300.372 105.433C304.663 105.433 306.379 105.467 304.32 105.5ZM802.077 105.5C799.846 105.533 796.413 105.533 794.354 105.5C792.122 105.467 793.839 105.433 798.13 105.433C802.421 105.433 804.137 105.467 802.077 105.5ZM853.57 105.5C851.338 105.533 847.906 105.533 845.846 105.5C843.615 105.467 845.331 105.433 849.622 105.433C853.913 105.433 855.629 105.467 853.57 105.5ZM1351.33 105.5C1349.1 105.533 1345.66 105.533 1343.6 105.5C1341.37 105.467 1343.09 105.433 1347.38 105.433C1351.67 105.433 1353.39 105.467 1351.33 105.5ZM1402.82 105.5C1400.59 105.533 1397.16 105.533 1395.1 105.5C1392.86 105.467 1394.58 105.433 1398.87 105.433C1403.16 105.433 1404.88 105.467 1402.82 105.5ZM1900.58 105.5C1898.35 105.533 1894.91 105.533 1892.85 105.5C1890.62 105.467 1892.34 105.433 1896.63 105.433C1900.92 105.433 1902.64 105.467 1900.58 105.5ZM1952.07 105.5C1949.84 105.533 1946.41 105.533 1944.35 105.5C1942.11 105.467 1943.83 105.433 1948.12 105.433C1952.41 105.433 1954.13 105.467 1952.07 105.5ZM236.865 105.715C234.462 105.781 230.686 105.848 228.283 105.848C224.507 105.848 224.507 105.831 229.141 105.715C232.059 105.649 235.835 105.583 237.723 105.583C240.469 105.583 240.298 105.616 236.865 105.715ZM320.111 105.715C324.745 105.831 324.745 105.848 320.969 105.848C318.566 105.848 314.79 105.781 312.387 105.715C308.954 105.616 308.782 105.583 311.529 105.583C313.417 105.583 317.364 105.649 320.111 105.715ZM786.115 105.715C783.712 105.781 779.936 105.848 777.533 105.848C773.757 105.848 773.757 105.831 778.391 105.715C781.309 105.649 785.085 105.583 786.973 105.583C789.719 105.583 789.548 105.616 786.115 105.715ZM869.361 105.715C873.995 105.831 873.995 105.848 870.219 105.848C867.816 105.848 864.04 105.781 861.637 105.715C858.204 105.616 858.032 105.583 860.779 105.583C862.667 105.583 866.614 105.649 869.361 105.715ZM1335.36 105.715C1332.96 105.781 1329.19 105.848 1326.78 105.848C1323.01 105.848 1323.01 105.831 1327.64 105.715C1330.56 105.649 1334.34 105.583 1336.22 105.583C1338.97 105.583 1338.8 105.616 1335.36 105.715ZM1418.61 105.715C1423.24 105.831 1423.24 105.848 1419.47 105.848C1417.07 105.848 1413.29 105.781 1410.89 105.715C1407.45 105.616 1407.28 105.583 1410.03 105.583C1411.92 105.583 1415.86 105.649 1418.61 105.715ZM1884.61 105.715C1882.21 105.781 1878.44 105.848 1876.03 105.848C1872.26 105.848 1872.26 105.831 1876.89 105.715C1879.81 105.649 1883.59 105.583 1885.47 105.583C1888.22 105.583 1888.05 105.616 1884.61 105.715ZM1967.86 105.715C1972.49 105.831 1972.49 105.848 1968.72 105.848C1966.32 105.848 1962.54 105.781 1960.14 105.715C1956.7 105.616 1956.53 105.583 1959.28 105.583C1961.17 105.583 1965.11 105.649 1967.86 105.715ZM220.559 106.047C218.671 106.129 215.581 106.179 213.693 106.179C210.947 106.179 211.119 106.146 214.552 106.047C220.387 105.864 224.85 105.864 220.559 106.047ZM334.7 106.047C338.133 106.146 338.304 106.179 335.558 106.179C333.67 106.179 330.581 106.129 328.693 106.047C324.402 105.864 328.864 105.864 334.7 106.047ZM769.809 106.047C767.921 106.129 764.831 106.179 762.943 106.179C760.197 106.179 760.369 106.146 763.802 106.047C769.637 105.864 774.1 105.864 769.809 106.047ZM883.95 106.047C887.383 106.146 887.555 106.179 884.808 106.179C882.92 106.179 879.831 106.129 877.943 106.047C873.652 105.864 878.114 105.864 883.95 106.047ZM1319.06 106.047C1317.17 106.129 1314.08 106.179 1312.19 106.179C1309.45 106.179 1309.62 106.146 1313.05 106.047C1318.89 105.864 1323.35 105.864 1319.06 106.047ZM1433.2 106.047C1436.63 106.146 1436.8 106.179 1434.06 106.179C1432.17 106.179 1429.08 106.129 1427.19 106.047C1422.9 105.864 1427.36 105.864 1433.2 106.047ZM1868.31 106.047C1866.42 106.129 1863.33 106.179 1861.44 106.179C1858.7 106.179 1858.87 106.146 1862.3 106.047C1868.14 105.864 1872.6 105.864 1868.31 106.047ZM1982.45 106.047C1985.88 106.146 1986.05 106.179 1983.31 106.179C1981.42 106.179 1978.33 106.129 1976.44 106.047C1972.15 105.864 1976.61 105.864 1982.45 106.047ZM202.708 106.477C198.417 106.61 194.641 106.676 194.298 106.626C193.44 106.544 203.91 106.245 207.686 106.245C209.059 106.245 206.828 106.345 202.708 106.477ZM353.58 106.56C356.67 106.742 347.745 106.577 342.424 106.345C340.193 106.262 340.879 106.245 344.998 106.312C348.26 106.378 352.207 106.477 353.58 106.56ZM751.958 106.477C747.667 106.61 743.891 106.676 743.548 106.626C742.69 106.544 753.16 106.245 756.936 106.245C758.309 106.245 756.078 106.345 751.958 106.477ZM902.831 106.56C905.92 106.742 896.995 106.577 891.674 106.345C889.443 106.262 890.129 106.245 894.248 106.312C897.51 106.378 901.457 106.477 902.831 106.56ZM1301.21 106.477C1296.92 106.61 1293.14 106.676 1292.8 106.626C1291.94 106.544 1302.41 106.245 1306.19 106.245C1307.56 106.245 1305.33 106.345 1301.21 106.477ZM1452.08 106.56C1455.17 106.742 1446.24 106.577 1440.92 106.345C1438.69 106.262 1439.38 106.245 1443.5 106.312C1446.76 106.378 1450.71 106.477 1452.08 106.56ZM1850.46 106.477C1846.17 106.61 1842.39 106.676 1842.05 106.626C1841.19 106.544 1851.66 106.245 1855.44 106.245C1856.81 106.245 1854.58 106.345 1850.46 106.477ZM2001.33 106.56C2004.42 106.742 1995.49 106.577 1990.17 106.345C1987.94 106.262 1988.63 106.245 1992.75 106.312C1996.01 106.378 1999.96 106.477 2001.33 106.56ZM189.664 106.875C185.029 107.074 182.283 107.074 185.373 106.875C186.746 106.792 189.149 106.726 190.522 106.726C192.238 106.726 191.895 106.776 189.664 106.875ZM363.879 106.875C366.968 107.074 364.222 107.074 359.588 106.875C357.357 106.776 357.013 106.726 358.73 106.726C360.103 106.726 362.506 106.792 363.879 106.875ZM738.914 106.875C734.279 107.074 731.533 107.074 734.623 106.875C735.996 106.792 738.399 106.726 739.772 106.726C741.488 106.726 741.145 106.776 738.914 106.875ZM913.129 106.875C916.218 107.074 913.472 107.074 908.838 106.875C906.607 106.776 906.263 106.726 907.98 106.726C909.353 106.726 911.756 106.792 913.129 106.875ZM1288.16 106.875C1283.53 107.074 1280.78 107.074 1283.87 106.875C1285.25 106.792 1287.65 106.726 1289.02 106.726C1290.74 106.726 1290.4 106.776 1288.16 106.875ZM1462.38 106.875C1465.47 107.074 1462.72 107.074 1458.09 106.875C1455.86 106.776 1455.51 106.726 1457.23 106.726C1458.6 106.726 1461.01 106.792 1462.38 106.875ZM1837.41 106.875C1832.78 107.074 1830.03 107.074 1833.12 106.875C1834.5 106.792 1836.9 106.726 1838.27 106.726C1839.99 106.726 1839.65 106.776 1837.41 106.875ZM2011.63 106.875C2014.72 107.074 2011.97 107.074 2007.34 106.875C2005.11 106.776 2004.76 106.726 2006.48 106.726C2007.85 106.726 2010.26 106.792 2011.63 106.875ZM179.365 107.206C174.731 107.405 171.985 107.405 175.074 107.206C176.447 107.124 178.85 107.057 180.223 107.057C181.94 107.057 181.597 107.107 179.365 107.206ZM374.177 107.206C377.267 107.405 374.521 107.405 369.886 107.206C367.655 107.107 367.312 107.057 369.028 107.057C370.401 107.057 372.804 107.124 374.177 107.206ZM728.615 107.206C723.981 107.405 721.235 107.405 724.324 107.206C725.697 107.124 728.1 107.057 729.473 107.057C731.19 107.057 730.847 107.107 728.615 107.206ZM923.427 107.206C926.517 107.405 923.771 107.405 919.136 107.206C916.905 107.107 916.562 107.057 918.278 107.057C919.651 107.057 922.054 107.124 923.427 107.206ZM1277.87 107.206C1273.23 107.405 1270.48 107.405 1273.57 107.206C1274.95 107.124 1277.35 107.057 1278.72 107.057C1280.44 107.057 1280.1 107.107 1277.87 107.206ZM1472.68 107.206C1475.77 107.405 1473.02 107.405 1468.39 107.206C1466.16 107.107 1465.81 107.057 1467.53 107.057C1468.9 107.057 1471.3 107.124 1472.68 107.206ZM1827.12 107.206C1822.48 107.405 1819.73 107.405 1822.82 107.206C1824.2 107.124 1826.6 107.057 1827.97 107.057C1829.69 107.057 1829.35 107.107 1827.12 107.206ZM2021.93 107.206C2025.02 107.405 2022.27 107.405 2017.64 107.206C2015.41 107.107 2015.06 107.057 2016.78 107.057C2018.15 107.057 2020.55 107.124 2021.93 107.206ZM167.179 107.604C158.597 107.969 153.104 108.051 160.485 107.72C164.261 107.538 168.552 107.389 169.925 107.389C171.298 107.389 170.097 107.488 167.179 107.604ZM388.767 107.72C392.543 107.886 393.744 107.985 391.513 107.936C385.162 107.77 376.409 107.389 379.327 107.389C380.7 107.389 384.991 107.538 388.767 107.72ZM716.429 107.604C707.847 107.969 702.354 108.051 709.735 107.72C713.511 107.538 717.802 107.389 719.175 107.389C720.548 107.389 719.347 107.488 716.429 107.604ZM938.017 107.72C941.793 107.886 942.994 107.985 940.763 107.936C934.412 107.77 925.659 107.389 928.577 107.389C929.95 107.389 934.241 107.538 938.017 107.72ZM1265.68 107.604C1257.1 107.969 1251.6 108.051 1258.98 107.72C1262.76 107.538 1267.05 107.389 1268.43 107.389C1269.8 107.389 1268.6 107.488 1265.68 107.604ZM1487.27 107.72C1491.04 107.886 1492.24 107.985 1490.01 107.936C1483.66 107.77 1474.91 107.389 1477.83 107.389C1479.2 107.389 1483.49 107.538 1487.27 107.72ZM1814.93 107.604C1806.35 107.969 1800.85 108.051 1808.23 107.72C1812.01 107.538 1816.3 107.389 1817.68 107.389C1819.05 107.389 1817.85 107.488 1814.93 107.604ZM2036.52 107.72C2040.29 107.886 2041.49 107.985 2039.26 107.936C2032.91 107.77 2024.16 107.389 2027.08 107.389C2028.45 107.389 2032.74 107.538 2036.52 107.72ZM139.716 108.598C131.134 108.963 125.642 109.046 133.022 108.714C136.798 108.532 141.089 108.383 142.463 108.383C143.836 108.383 142.634 108.482 139.716 108.598ZM416.229 108.714C420.005 108.88 421.207 108.979 418.976 108.93C412.625 108.764 403.871 108.383 406.789 108.383C408.162 108.383 412.453 108.532 416.229 108.714ZM688.966 108.598C680.384 108.963 674.892 109.046 682.272 108.714C686.048 108.532 690.339 108.383 691.713 108.383C693.086 108.383 691.884 108.482 688.966 108.598ZM965.479 108.714C969.255 108.88 970.457 108.979 968.226 108.93C961.875 108.764 953.121 108.383 956.039 108.383C957.412 108.383 961.703 108.532 965.479 108.714ZM1238.22 108.598C1229.63 108.963 1224.14 109.046 1231.52 108.714C1235.3 108.532 1239.59 108.383 1240.96 108.383C1242.34 108.383 1241.13 108.482 1238.22 108.598ZM1514.73 108.714C1518.51 108.88 1519.71 108.979 1517.48 108.93C1511.12 108.764 1502.37 108.383 1505.29 108.383C1506.66 108.383 1510.95 108.532 1514.73 108.714ZM1787.47 108.598C1778.88 108.963 1773.39 109.046 1780.77 108.714C1784.55 108.532 1788.84 108.383 1790.21 108.383C1791.59 108.383 1790.38 108.482 1787.47 108.598ZM2063.98 108.714C2067.76 108.88 2068.96 108.979 2066.73 108.93C2060.37 108.764 2051.62 108.383 2054.54 108.383C2055.91 108.383 2060.2 108.532 2063.98 108.714ZM112.082 109.609C103.843 109.957 68.3138 111.034 67.6272 110.968C67.2839 110.935 77.2391 110.57 89.7688 110.156C112.254 109.427 122.724 109.162 112.082 109.609ZM459.654 110.172C472.013 110.57 481.968 110.935 481.624 110.968C480.938 111.051 445.065 109.94 437.169 109.592C428.759 109.228 434.423 109.377 459.654 110.172ZM661.332 109.609C653.093 109.957 617.564 111.034 616.877 110.968C616.534 110.935 626.489 110.57 639.019 110.156C661.504 109.427 671.974 109.162 661.332 109.609ZM1008.9 110.172C1021.26 110.57 1031.22 110.935 1030.87 110.968C1030.19 111.051 994.315 109.94 986.42 109.592C978.009 109.228 983.673 109.377 1008.9 110.172ZM1210.58 109.609C1202.34 109.957 1166.81 111.034 1166.13 110.968C1165.78 110.935 1175.74 110.57 1188.27 110.156C1210.75 109.427 1221.22 109.162 1210.58 109.609ZM1558.15 110.172C1570.51 110.57 1580.47 110.935 1580.12 110.968C1579.44 111.051 1543.57 109.94 1535.67 109.592C1527.26 109.228 1532.92 109.377 1558.15 110.172ZM1759.83 109.609C1751.59 109.957 1716.06 111.034 1715.38 110.968C1715.03 110.935 1724.99 110.57 1737.52 110.156C1760 109.427 1770.47 109.162 1759.83 109.609ZM2107.4 110.172C2119.76 110.57 2129.72 110.935 2129.37 110.968C2128.69 111.051 2092.82 109.94 2084.92 109.592C2076.51 109.228 2082.17 109.377 2107.4 110.172ZM61.7914 111.183C55.9556 111.365 51.493 111.365 55.784 111.183C57.672 111.1 60.7616 111.051 62.6496 111.051C65.3959 111.051 65.2242 111.084 61.7914 111.183ZM493.468 111.183C497.759 111.365 493.296 111.365 487.46 111.183C484.027 111.084 483.856 111.051 486.602 111.051C488.49 111.051 491.58 111.1 493.468 111.183ZM611.041 111.183C605.206 111.365 600.743 111.365 605.034 111.183C606.922 111.1 610.012 111.051 611.9 111.051C614.646 111.051 614.474 111.084 611.041 111.183ZM1042.72 111.183C1047.01 111.365 1042.55 111.365 1036.71 111.183C1033.28 111.084 1033.11 111.051 1035.85 111.051C1037.74 111.051 1040.83 111.1 1042.72 111.183ZM1160.29 111.183C1154.46 111.365 1149.99 111.365 1154.28 111.183C1156.17 111.1 1159.26 111.051 1161.15 111.051C1163.9 111.051 1163.72 111.084 1160.29 111.183ZM1591.97 111.183C1596.26 111.365 1591.8 111.365 1585.96 111.183C1582.53 111.084 1582.36 111.051 1585.1 111.051C1586.99 111.051 1590.08 111.1 1591.97 111.183ZM1709.54 111.183C1703.71 111.365 1699.24 111.365 1703.53 111.183C1705.42 111.1 1708.51 111.051 1710.4 111.051C1713.15 111.051 1712.97 111.084 1709.54 111.183ZM2141.22 111.183C2145.51 111.365 2141.05 111.365 2135.21 111.183C2131.78 111.084 2131.61 111.051 2134.35 111.051C2136.24 111.051 2139.33 111.1 2141.22 111.183ZM50.2915 111.465C49.09 111.498 46.687 111.498 45.1423 111.465C43.4259 111.415 44.4557 111.382 47.202 111.382C50.1198 111.382 51.3213 111.415 50.2915 111.465ZM505.139 111.465C503.938 111.498 501.535 111.498 499.99 111.465C498.274 111.415 499.303 111.382 502.05 111.382C504.968 111.382 506.169 111.415 505.139 111.465ZM599.542 111.465C598.34 111.498 595.937 111.498 594.392 111.465C592.676 111.415 593.706 111.382 596.452 111.382C599.37 111.382 600.571 111.415 599.542 111.465ZM1054.39 111.465C1053.19 111.498 1050.78 111.498 1049.24 111.465C1047.52 111.415 1048.55 111.382 1051.3 111.382C1054.22 111.382 1055.42 111.415 1054.39 111.465ZM1148.79 111.465C1147.59 111.498 1145.19 111.498 1143.64 111.465C1141.93 111.415 1142.96 111.382 1145.7 111.382C1148.62 111.382 1149.82 111.415 1148.79 111.465ZM1603.64 111.465C1602.44 111.498 1600.03 111.498 1598.49 111.465C1596.77 111.415 1597.8 111.382 1600.55 111.382C1603.47 111.382 1604.67 111.415 1603.64 111.465ZM1698.04 111.465C1696.84 111.498 1694.44 111.498 1692.89 111.465C1691.18 111.415 1692.21 111.382 1694.95 111.382C1697.87 111.382 1699.07 111.415 1698.04 111.465ZM2152.89 111.465C2151.69 111.498 2149.28 111.498 2147.74 111.465C2146.02 111.415 2147.05 111.382 2149.8 111.382C2152.72 111.382 2153.92 111.415 2152.89 111.465ZM40.6796 111.614C40.1647 111.664 38.6199 111.68 37.4184 111.631C36.0453 111.581 36.5602 111.531 38.4483 111.531C40.3363 111.515 41.3662 111.564 40.6796 111.614ZM512.691 111.614C512.176 111.664 510.632 111.68 509.43 111.631C508.057 111.581 508.572 111.531 510.46 111.531C512.348 111.515 513.378 111.564 512.691 111.614ZM589.93 111.614C589.415 111.664 587.87 111.68 586.668 111.631C585.295 111.581 585.81 111.531 587.698 111.531C589.586 111.515 590.616 111.564 589.93 111.614ZM1061.94 111.614C1061.43 111.664 1059.88 111.68 1058.68 111.631C1057.31 111.581 1057.82 111.531 1059.71 111.531C1061.6 111.515 1062.63 111.564 1061.94 111.614ZM1139.18 111.614C1138.66 111.664 1137.12 111.68 1135.92 111.631C1134.55 111.581 1135.06 111.531 1136.95 111.531C1138.84 111.515 1139.87 111.564 1139.18 111.614ZM1611.19 111.614C1610.68 111.664 1609.13 111.68 1607.93 111.631C1606.56 111.581 1607.07 111.531 1608.96 111.531C1610.85 111.515 1611.88 111.564 1611.19 111.614ZM1688.43 111.614C1687.91 111.664 1686.37 111.68 1685.17 111.631C1683.8 111.581 1684.31 111.531 1686.2 111.531C1688.09 111.515 1689.12 111.564 1688.43 111.614ZM2160.44 111.614C2159.93 111.664 2158.38 111.68 2157.18 111.631C2155.81 111.581 2156.32 111.531 2158.21 111.531C2160.1 111.515 2161.13 111.564 2160.44 111.614ZM32.2692 111.796C30.5528 111.829 27.4633 111.829 25.4036 111.796C23.1723 111.763 24.5454 111.73 28.3215 111.73C32.0976 111.713 33.814 111.747 32.2692 111.796ZM524.878 111.796C523.161 111.829 520.072 111.829 518.012 111.796C515.781 111.763 517.154 111.73 520.93 111.73C524.706 111.713 526.423 111.747 524.878 111.796ZM581.519 111.796C579.803 111.829 576.713 111.829 574.654 111.796C572.422 111.763 573.795 111.73 577.572 111.73C581.348 111.713 583.064 111.747 581.519 111.796ZM1074.13 111.796C1072.41 111.829 1069.32 111.829 1067.26 111.796C1065.03 111.763 1066.4 111.73 1070.18 111.73C1073.96 111.713 1075.67 111.747 1074.13 111.796ZM1130.77 111.796C1129.05 111.829 1125.96 111.829 1123.9 111.796C1121.67 111.763 1123.05 111.73 1126.82 111.73C1130.6 111.713 1132.31 111.747 1130.77 111.796ZM1623.38 111.796C1621.66 111.829 1618.57 111.829 1616.51 111.796C1614.28 111.763 1615.65 111.73 1619.43 111.73C1623.21 111.713 1624.92 111.747 1623.38 111.796ZM1680.02 111.796C1678.3 111.829 1675.21 111.829 1673.15 111.796C1670.92 111.763 1672.3 111.73 1676.07 111.73C1679.85 111.713 1681.56 111.747 1680.02 111.796ZM2172.63 111.796C2170.91 111.829 2167.82 111.829 2165.76 111.796C2163.53 111.763 2164.9 111.73 2168.68 111.73C2172.46 111.713 2174.17 111.747 2172.63 111.796ZM559.206 111.962C553.713 111.995 544.788 111.995 539.467 111.962C533.975 111.929 538.437 111.912 549.251 111.912C560.064 111.912 564.527 111.929 559.206 111.962ZM1108.46 111.962C1102.96 111.995 1094.04 111.995 1088.72 111.962C1083.22 111.929 1087.69 111.912 1098.5 111.912C1109.31 111.912 1113.78 111.929 1108.46 111.962ZM1657.71 111.962C1652.21 111.995 1643.29 111.995 1637.97 111.962C1632.47 111.929 1636.94 111.912 1647.75 111.912C1658.56 111.912 1663.03 111.929 1657.71 111.962Z" fill="#939393"/>
</g>
<g style="mix-blend-mode:overlay">
<rect width="2209" height="113.503" fill="url(#paint0_linear)"/>
</g>
</mask>
<g mask="url(#mask0)">
<rect width="2197" height="114" fill="url(#paint1_linear)"/>
</g>
</g>
<defs>
<linearGradient id="paint0_linear" x1="1104.5" y1="0" x2="1104.5" y2="113.503" gradientUnits="userSpaceOnUse">
<stop stop-color="#4588A3"/>
<stop offset="0.213542" stop-color="#44B5BB"/>
<stop offset="0.401042" stop-color="#44B5BB" stop-opacity="0.77"/>
<stop offset="0.723958" stop-color="#63C6C1" stop-opacity="0.75"/>
<stop offset="0.890625" stop-color="#FFF6D5"/>
</linearGradient>
<linearGradient id="paint1_linear" x1="1098.5" y1="0" x2="1098.5" y2="114" gradientUnits="userSpaceOnUse">
<stop stop-color="#4683A0"/>
<stop offset="0.123547" stop-color="#469FB1"/>
<stop offset="0.276042" stop-color="#44B5BB"/>
<stop offset="0.453125" stop-color="#44B5BB"/>
<stop offset="0.651042" stop-color="#63C6C1"/>
<stop offset="0.942708" stop-color="#FFF8D6"/>
</linearGradient>
<clipPath id="clip0">
<rect width="2197" height="114" fill="white"/>
</clipPath>
<clipPath id="clip1">
<rect width="2197" height="188.73" fill="white" transform="translate(0 9.77618)"/>
</clipPath>
</defs>
</svg>
