<svg width="2210" height="129" viewBox="0 0 2210 129" fill="none" xmlns="http://www.w3.org/2000/svg">
<path d="M244.431 11.3438C216.28 11.85 194.309 12.5813 130.455 15.15C67.2867 17.7 37.076 18.5438 9.95503 18.5625H0.857489V29.6813L14.0747 29.55C47.2034 29.2125 72.6079 28.4625 139.037 25.7813C212.676 22.8188 238.767 22.125 275.5 22.125C312.234 22.125 338.325 22.8188 411.963 25.7813C488.863 28.875 512.551 29.5125 550.143 29.5125C587.735 29.5125 611.423 28.875 688.323 25.7813C761.961 22.8188 788.052 22.125 824.786 22.125C861.519 22.125 887.61 22.8188 961.249 25.7813C1038.15 28.875 1061.84 29.5125 1099.43 29.5125C1137.02 29.5125 1160.71 28.875 1237.61 25.7813C1311.25 22.8188 1337.34 22.125 1374.07 22.125C1410.8 22.125 1436.9 22.8188 1510.53 25.7813C1587.43 28.875 1611.12 29.5125 1648.71 29.5125C1686.31 29.5125 1709.99 28.875 1786.89 25.7813C1860.53 22.8188 1886.62 22.125 1923.36 22.125C1960.09 22.125 1986.18 22.8188 2059.82 25.7813C2126.25 28.4625 2151.65 29.2125 2184.78 29.55L2198 29.6813V18.5625H2189.07C2160.75 18.5438 2132.94 17.7375 2059.82 14.8125C1980.52 11.6438 1963.18 11.175 1923.36 11.175C1883.53 11.175 1866.2 11.6438 1786.89 14.8125C1707.93 17.9813 1686.48 18.5625 1648.71 18.5625C1610.95 18.5625 1589.49 17.9813 1510.53 14.8125C1431.23 11.6438 1413.89 11.175 1374.07 11.175C1334.25 11.175 1316.91 11.6438 1237.61 14.8125C1158.65 17.9813 1137.19 18.5625 1099.43 18.5625C1061.66 18.5625 1040.21 17.9813 961.249 14.8125C881.946 11.6438 864.609 11.175 824.786 11.175C784.962 11.175 767.626 11.6438 688.323 14.8125C609.363 17.9813 587.906 18.5625 550.143 18.5625C512.38 18.5625 490.923 17.9813 411.963 14.8125C360.811 12.7688 342.444 12.1313 320.816 11.625C298.502 11.1188 264 10.9875 244.431 11.3438Z" fill="url(#paint0_linear)"/>
<path d="M255.76 30.675C219.37 31.2563 201.862 31.8 134.746 34.5C68.3166 37.1625 37.076 38.0625 10.9849 38.0625H0.857489V49.1625L14.2463 49.0313C47.2034 48.7125 74.1528 47.9063 136.977 45.3563C211.131 42.3563 238.938 41.6063 275.5 41.6063C312.062 41.6063 339.87 42.3563 414.023 45.3563C487.147 48.3188 512.894 49.0125 550.143 49.0125C587.391 49.0125 613.139 48.3188 686.263 45.3563C760.416 42.3563 788.224 41.6063 824.786 41.6063C861.347 41.6063 889.155 42.3563 963.309 45.3563C1036.43 48.3188 1062.18 49.0125 1099.43 49.0125C1136.68 49.0125 1162.42 48.3188 1235.55 45.3563C1309.7 42.3563 1337.51 41.6063 1374.07 41.6063C1410.63 41.6063 1438.44 42.3563 1512.59 45.3563C1585.72 48.3188 1611.47 49.0125 1648.71 49.0125C1685.96 49.0125 1711.71 48.3188 1784.83 45.3563C1858.99 42.3563 1886.79 41.6063 1923.36 41.6063C1959.92 41.6063 1987.73 42.3563 2061.88 45.3563C2124.7 47.9063 2151.65 48.7125 2184.78 49.0313L2198 49.1625V38.0625H2187.87C2161.78 38.0625 2130.54 37.1625 2064.11 34.5C1981.72 31.2 1962.84 30.675 1923.36 30.675C1883.88 30.675 1864.99 31.2 1782.6 34.5C1709.82 37.425 1685.62 38.0625 1648.71 38.0625C1611.81 38.0625 1587.61 37.425 1514.83 34.5C1432.43 31.2 1413.55 30.675 1374.07 30.675C1334.59 30.675 1315.71 31.2 1233.32 34.5C1160.54 37.425 1136.33 38.0625 1099.43 38.0625C1062.52 38.0625 1038.32 37.425 965.54 34.5C883.147 31.2 864.265 30.675 824.786 30.675C785.306 30.675 766.424 31.2 684.031 34.5C611.251 37.425 587.048 38.0625 550.143 38.0625C513.238 38.0625 489.207 37.425 416.255 34.5C358.751 32.1938 342.273 31.6125 318.756 31.1063C302.793 30.75 266.574 30.5063 255.76 30.675Z" fill="url(#paint1_linear)"/>
<path d="M250.611 50.2688C221.602 50.6813 198.944 51.4313 118.439 54.6563C76.0409 56.3625 42.7405 57.3188 18.8809 57.5063L1.71575 57.6563L1.20079 63.1688L0.857489 68.6625L13.2164 68.5313C46.5168 68.2125 73.2945 67.425 133.888 64.9688C186.585 62.85 199.287 62.3813 222.288 61.7813C267.089 60.6188 309.144 60.9188 360.468 62.7563C368.02 63.0188 393.597 64.0125 417.113 64.9688C487.833 67.8375 513.238 68.5125 550.143 68.5125C587.048 68.5125 612.452 67.8375 683.173 64.9688C735.87 62.85 748.572 62.3813 771.574 61.7813C816.375 60.6188 858.429 60.9188 909.753 62.7563C917.306 63.0188 942.882 64.0125 966.398 64.9688C1037.12 67.8375 1062.52 68.5125 1099.43 68.5125C1136.33 68.5125 1161.74 67.8375 1232.46 64.9688C1285.16 62.85 1297.86 62.3813 1320.86 61.7813C1356.56 60.8625 1391.58 60.8625 1427.28 61.7813C1450.28 62.3813 1462.99 62.85 1515.68 64.9688C1586.4 67.8375 1611.81 68.5125 1648.71 68.5125C1685.62 68.5125 1711.02 67.8375 1781.74 64.9688C1834.44 62.85 1847.14 62.3813 1870.14 61.7813C1914.95 60.6188 1957 60.9188 2008.32 62.7563C2015.88 63.0188 2041.45 64.0125 2064.97 64.9688C2125.56 67.425 2152.34 68.2125 2185.64 68.5313L2198 68.6625L2197.66 63.1688L2197.14 57.6563L2179.98 57.5063C2156.12 57.3188 2122.82 56.3625 2080.42 54.6563C2015.19 52.0313 2001.63 51.5438 1981.03 50.9813C1950.99 50.1938 1927.65 49.95 1904.82 50.2125C1870.66 50.625 1851.43 51.2438 1766.3 54.6563C1668.97 58.5563 1628.46 58.5563 1531.13 54.6563C1465.9 52.0313 1452.34 51.5438 1431.75 50.9813C1401.71 50.1938 1378.36 49.95 1355.53 50.2125C1321.37 50.625 1302.15 51.2438 1217.01 54.6563C1119.68 58.5563 1079.17 58.5563 981.847 54.6563C916.619 52.0313 903.059 51.5438 882.461 50.9813C852.421 50.1938 829.077 49.95 806.247 50.2125C772.088 50.625 752.864 51.2438 667.724 54.6563C647.984 55.4438 621.207 56.3813 608.504 56.7375C551.516 58.2938 511.178 57.8063 432.561 54.6563C366.819 52.0125 353.773 51.5438 333.003 51C299.016 50.1 277.217 49.9125 250.611 50.2688Z" fill="url(#paint2_linear)"/>
<path d="M258.335 69.675C230.699 69.9563 200.832 70.875 142.813 73.2C74.3244 75.9563 55.6144 76.5563 28.3218 76.8938C19.3959 77.0063 9.44007 77.1375 6.52199 77.175L0.857489 77.2688V88.1438L11.6715 88.0313C50.8081 87.6188 69.0032 87.075 137.321 84.3188C214.735 81.2063 237.394 80.5875 275.5 80.5875C313.607 80.5875 336.265 81.2063 413.68 84.3188C489.207 87.375 512.551 87.9938 550.143 87.9938C587.735 87.9938 611.079 87.375 686.606 84.3188C764.021 81.2063 786.679 80.5875 824.786 80.5875C862.892 80.5875 885.55 81.2063 962.965 84.3188C1038.49 87.375 1061.84 87.9938 1099.43 87.9938C1137.02 87.9938 1160.36 87.375 1235.89 84.3188C1313.31 81.2063 1335.96 80.5875 1374.07 80.5875C1412.18 80.5875 1434.84 81.2063 1512.25 84.3188C1587.78 87.375 1611.12 87.9938 1648.71 87.9938C1686.31 87.9938 1709.65 87.375 1785.18 84.3188C1862.59 81.2063 1885.25 80.5875 1923.36 80.5875C1961.46 80.5875 1984.12 81.2063 2061.54 84.3188C2129.85 87.075 2148.05 87.6188 2187.36 88.0313L2198 88.1438V77.2688L2192.51 77.175C2189.42 77.1375 2179.46 77.0063 2170.53 76.8938C2143.24 76.5563 2124.53 75.9563 2056.04 73.2C1984.81 70.3313 1960.43 69.6938 1923.36 69.6938C1887.14 69.6938 1861.56 70.35 1797.02 72.9563C1709.82 76.4813 1688.02 77.0813 1648.71 77.0813C1609.41 77.0813 1587.61 76.4813 1500.41 72.9563C1435.87 70.35 1410.29 69.6938 1374.07 69.6938C1337.85 69.6938 1312.28 70.35 1247.74 72.9563C1160.54 76.4813 1138.74 77.0813 1099.43 77.0813C1060.12 77.0813 1038.32 76.4813 951.121 72.9563C886.58 70.35 861.004 69.6938 824.786 69.6938C788.567 69.6938 762.991 70.35 698.45 72.9563C611.251 76.4813 589.451 77.0813 550.143 77.0813C510.835 77.0813 489.035 76.4813 401.836 72.9563C361.498 71.325 336.437 70.4813 315.323 70.05C300.905 69.75 270.694 69.5625 258.335 69.675Z" fill="url(#paint3_linear)"/>
<path d="M256.619 89.2688C227.094 89.5688 204.608 90.2438 139.895 92.85C87.3699 94.95 76.3842 95.3438 54.9278 95.9063C41.024 96.2625 10.9849 96.75 2.57401 96.75C1.37244 96.75 0.857489 98.55 0.857489 102.169V107.569L13.3881 107.494C43.2555 107.288 71.9213 106.425 135.604 103.875C203.406 101.138 223.833 100.5 257.133 100.125C278.762 99.8625 302.621 100.088 329.57 100.781C351.37 101.344 364.416 101.813 415.396 103.875C489.035 106.838 512.894 107.475 550.143 107.475C587.391 107.475 611.251 106.838 684.889 103.875C735.87 101.813 748.916 101.344 770.715 100.781C809.337 99.7875 840.234 99.7875 878.856 100.781C900.656 101.344 913.701 101.813 964.682 103.875C1038.32 106.838 1062.18 107.475 1099.43 107.475C1136.68 107.475 1160.54 106.838 1234.17 103.875C1285.16 101.813 1298.2 101.344 1320 100.781C1358.62 99.7875 1389.52 99.7875 1428.14 100.781C1449.94 101.344 1462.99 101.813 1513.97 103.875C1587.61 106.838 1611.47 107.475 1648.71 107.475C1685.96 107.475 1709.82 106.838 1783.46 103.875C1851.26 101.138 1871.69 100.5 1904.99 100.125C1926.62 99.8625 1950.48 100.088 1977.43 100.781C1999.23 101.344 2012.27 101.813 2063.25 103.875C2126.94 106.425 2155.6 107.288 2185.64 107.494L2198 107.569V102.169C2198 98.55 2197.48 96.75 2196.28 96.75C2187.87 96.75 2157.83 96.2625 2143.93 95.9063C2122.47 95.3438 2111.49 94.95 2058.96 92.85C1983.26 89.8125 1961.12 89.2125 1923.36 89.2125C1885.59 89.2125 1863.45 89.8125 1787.75 92.85C1735.23 94.95 1724.24 95.3438 1702.78 95.9063C1664.16 96.9 1633.26 96.9 1594.64 95.9063C1573.19 95.3438 1562.2 94.95 1509.68 92.85C1433.98 89.8125 1411.83 89.2125 1374.07 89.2125C1336.31 89.2125 1314.16 89.8125 1238.47 92.85C1185.94 94.95 1174.96 95.3438 1153.5 95.9063C1126.55 96.6 1102.69 96.825 1081.06 96.5625C1047.76 96.1875 1029.05 95.6063 960.39 92.85C884.692 89.8125 862.549 89.2125 824.786 89.2125C787.022 89.2125 764.879 89.8125 689.181 92.85C636.655 94.95 625.67 95.3438 604.213 95.9063C565.592 96.9 534.694 96.9 496.073 95.9063C474.616 95.3438 463.459 94.95 410.762 92.8313C329.914 89.5875 297.643 88.8375 256.619 89.2688Z" fill="url(#paint4_linear)"/>
<path d="M238.596 109.05C215.938 109.481 189.847 110.381 138.523 112.444C70.7205 115.163 37.0768 116.138 6.69442 116.288C0.858259 116.306 1.20156 116.325 9.44084 116.438L18.8817 116.569L9.9558 116.588L0.858259 116.625V126.563L10.8141 126.6L20.5982 126.619L0 126.881L10.4708 126.9C35.5319 126.975 69.004 126.019 137.836 123.244C194.481 120.975 220.057 120.131 244.947 119.738C291.98 118.969 322.705 119.606 413.166 123.244C487.662 126.244 513.239 126.938 550.144 126.938C587.049 126.938 612.625 126.244 687.122 123.244C777.582 119.606 808.308 118.969 855.34 119.738C880.23 120.131 905.806 120.975 962.451 123.244C1036.95 126.244 1062.52 126.938 1099.43 126.938C1136.33 126.938 1161.91 126.244 1236.41 123.244C1326.87 119.606 1357.59 118.969 1404.63 119.738C1429.52 120.131 1455.09 120.975 1511.74 123.244C1586.23 126.244 1611.81 126.938 1648.71 126.938C1685.62 126.938 1711.2 126.244 1785.69 123.244C1842.34 120.975 1867.91 120.131 1892.8 119.738C1939.84 118.969 1970.56 119.606 2061.02 123.244C2129.85 126.019 2163.33 126.975 2188.39 126.9L2198.86 126.881L2178.26 126.619L2188.22 126.6L2198 126.563V116.625L2189.07 116.588L2179.98 116.569L2189.42 116.438C2197.66 116.325 2198 116.306 2192.16 116.288C2161.78 116.138 2128.14 115.163 2060.34 112.444C1985.84 109.444 1960.26 108.75 1923.36 108.75C1886.45 108.75 1860.88 109.444 1786.38 112.444C1729.73 114.713 1704.16 115.556 1679.27 115.95C1632.24 116.719 1601.51 116.081 1511.05 112.444C1436.55 109.444 1410.98 108.75 1374.07 108.75C1337.17 108.75 1311.59 109.444 1237.09 112.444C1180.45 114.713 1154.87 115.556 1129.98 115.95C1082.95 116.719 1052.22 116.081 961.764 112.444C887.268 109.444 861.692 108.75 824.786 108.75C787.881 108.75 762.305 109.444 687.808 112.444C631.163 114.713 605.587 115.556 580.698 115.95C533.665 116.719 502.939 116.081 412.479 112.444C336.781 109.388 312.063 108.731 273.956 108.769C262.112 108.769 246.149 108.9 238.596 109.05ZM285.457 109.069C279.964 109.106 271.038 109.106 265.717 109.069C260.224 109.031 264.687 109.013 275.501 109.013C286.315 109.013 290.778 109.031 285.457 109.069ZM834.742 109.069C829.249 109.106 820.323 109.106 815.002 109.069C809.509 109.031 813.972 109.013 824.786 109.013C835.601 109.013 840.063 109.031 834.742 109.069ZM1384.03 109.069C1378.53 109.106 1369.61 109.106 1364.29 109.069C1358.79 109.031 1363.26 109.013 1374.07 109.013C1384.89 109.013 1389.35 109.031 1384.03 109.069ZM1933.31 109.069C1927.82 109.106 1918.89 109.106 1913.57 109.069C1908.08 109.031 1912.54 109.013 1923.36 109.013C1934.17 109.013 1938.63 109.031 1933.31 109.069ZM251.985 109.256C249.753 109.294 246.32 109.294 244.26 109.256C242.029 109.219 243.745 109.181 248.037 109.181C252.328 109.181 254.045 109.219 251.985 109.256ZM306.913 109.256C304.682 109.294 301.249 109.294 299.189 109.256C296.957 109.219 298.674 109.181 302.965 109.181C307.257 109.181 308.973 109.219 306.913 109.256ZM801.27 109.256C799.039 109.294 795.606 109.294 793.546 109.256C791.314 109.219 793.031 109.181 797.322 109.181C801.613 109.181 803.33 109.219 801.27 109.256ZM856.199 109.256C853.967 109.294 850.534 109.294 848.474 109.256C846.243 109.219 847.959 109.181 852.251 109.181C856.542 109.181 858.259 109.219 856.199 109.256ZM1350.56 109.256C1348.32 109.294 1344.89 109.294 1342.83 109.256C1340.6 109.219 1342.32 109.181 1346.61 109.181C1350.9 109.181 1352.62 109.219 1350.56 109.256ZM1405.48 109.256C1403.25 109.294 1399.82 109.294 1397.76 109.256C1395.53 109.219 1397.24 109.181 1401.54 109.181C1405.83 109.181 1407.54 109.219 1405.48 109.256ZM1899.84 109.256C1897.61 109.294 1894.18 109.294 1892.12 109.256C1889.89 109.219 1891.6 109.181 1895.89 109.181C1900.18 109.181 1901.9 109.219 1899.84 109.256ZM1954.77 109.256C1952.54 109.294 1949.11 109.294 1947.05 109.256C1944.81 109.219 1946.53 109.181 1950.82 109.181C1955.11 109.181 1956.83 109.219 1954.77 109.256ZM238.939 109.425C238.424 109.481 236.879 109.5 235.678 109.444C234.305 109.388 234.82 109.331 236.708 109.331C238.596 109.313 239.626 109.369 238.939 109.425ZM316.182 109.425C315.667 109.481 314.123 109.5 312.921 109.444C311.548 109.388 312.063 109.331 313.951 109.331C315.839 109.313 316.869 109.369 316.182 109.425ZM788.225 109.425C787.71 109.481 786.165 109.5 784.963 109.444C783.59 109.388 784.105 109.331 785.993 109.331C787.881 109.313 788.911 109.369 788.225 109.425ZM865.468 109.425C864.953 109.481 863.408 109.5 862.206 109.444C860.833 109.388 861.348 109.331 863.236 109.331C865.125 109.313 866.155 109.369 865.468 109.425ZM1337.51 109.425C1337 109.481 1335.45 109.5 1334.25 109.444C1332.88 109.388 1333.39 109.331 1335.28 109.331C1337.17 109.313 1338.2 109.369 1337.51 109.425ZM1414.75 109.425C1414.24 109.481 1412.69 109.5 1411.49 109.444C1410.12 109.388 1410.63 109.331 1412.52 109.331C1414.41 109.313 1415.44 109.369 1414.75 109.425ZM1886.8 109.425C1886.28 109.481 1884.74 109.5 1883.53 109.444C1882.16 109.388 1882.68 109.331 1884.56 109.331C1886.45 109.313 1887.48 109.369 1886.8 109.425ZM1964.04 109.425C1963.52 109.481 1961.98 109.5 1960.78 109.444C1959.4 109.388 1959.92 109.331 1961.81 109.331C1963.7 109.313 1964.73 109.369 1964.04 109.425ZM231.387 109.631C230.185 109.669 227.782 109.669 226.237 109.631C224.52 109.575 225.55 109.538 228.297 109.538C231.215 109.538 232.416 109.575 231.387 109.631ZM325.795 109.631C324.593 109.669 322.19 109.669 320.645 109.631C318.929 109.575 319.959 109.538 322.705 109.538C325.623 109.538 326.825 109.575 325.795 109.631ZM780.672 109.631C779.47 109.669 777.067 109.669 775.522 109.631C773.806 109.575 774.836 109.538 777.582 109.538C780.5 109.538 781.702 109.575 780.672 109.631ZM875.08 109.631C873.879 109.669 871.476 109.669 869.931 109.631C868.214 109.575 869.244 109.538 871.991 109.538C874.909 109.538 876.11 109.575 875.08 109.631ZM1329.96 109.631C1328.76 109.669 1326.35 109.669 1324.81 109.631C1323.09 109.575 1324.12 109.538 1326.87 109.538C1329.79 109.538 1330.99 109.575 1329.96 109.631ZM1424.37 109.631C1423.16 109.669 1420.76 109.669 1419.22 109.631C1417.5 109.575 1418.53 109.538 1421.28 109.538C1424.19 109.538 1425.4 109.575 1424.37 109.631ZM1879.24 109.631C1878.04 109.669 1875.64 109.669 1874.09 109.631C1872.38 109.575 1873.41 109.538 1876.15 109.538C1879.07 109.538 1880.27 109.575 1879.24 109.631ZM1973.65 109.631C1972.45 109.669 1970.05 109.669 1968.5 109.631C1966.79 109.575 1967.82 109.538 1970.56 109.538C1973.48 109.538 1974.68 109.575 1973.65 109.631ZM219.714 109.875C217.826 109.969 214.736 110.025 212.848 110.025C210.102 110.025 210.273 109.988 213.706 109.875C219.543 109.669 224.005 109.669 219.714 109.875ZM337.296 109.875C340.729 109.988 340.9 110.025 338.154 110.025C336.266 110.025 333.176 109.969 331.288 109.875C326.996 109.669 331.459 109.669 337.296 109.875ZM769 109.875C767.111 109.969 764.022 110.025 762.134 110.025C759.387 110.025 759.559 109.988 762.992 109.875C768.828 109.669 773.291 109.669 769 109.875ZM886.581 109.875C890.014 109.988 890.186 110.025 887.439 110.025C885.551 110.025 882.461 109.969 880.573 109.875C876.282 109.669 880.745 109.669 886.581 109.875ZM1318.29 109.875C1316.4 109.969 1313.31 110.025 1311.42 110.025C1308.67 110.025 1308.84 109.988 1312.28 109.875C1318.11 109.669 1322.58 109.669 1318.29 109.875ZM1435.87 109.875C1439.3 109.988 1439.47 110.025 1436.72 110.025C1434.84 110.025 1431.75 109.969 1429.86 109.875C1425.57 109.669 1430.03 109.669 1435.87 109.875ZM1867.57 109.875C1865.68 109.969 1862.59 110.025 1860.7 110.025C1857.96 110.025 1858.13 109.988 1861.56 109.875C1867.4 109.669 1871.86 109.669 1867.57 109.875ZM1985.15 109.875C1988.58 109.988 1988.76 110.025 1986.01 110.025C1984.12 110.025 1981.03 109.969 1979.14 109.875C1974.85 109.669 1979.32 109.669 1985.15 109.875ZM208.385 110.138C207.012 110.269 159.979 111.938 159.293 111.863C158.949 111.825 169.249 111.413 182.294 110.925C204.094 110.138 210.273 109.95 208.385 110.138ZM368.536 110.925C381.582 111.413 392.052 111.825 391.709 111.863C391.023 111.938 343.99 110.269 342.617 110.138C340.729 109.95 346.221 110.119 368.536 110.925ZM757.671 110.138C756.297 110.269 709.265 111.938 708.578 111.863C708.235 111.825 718.534 111.413 731.58 110.925C753.379 110.138 759.559 109.95 757.671 110.138ZM917.822 110.925C930.867 111.413 941.338 111.825 940.995 111.863C940.308 111.938 893.275 110.269 891.902 110.138C890.014 109.95 895.507 110.119 917.822 110.925ZM1306.96 110.138C1305.58 110.269 1258.55 111.938 1257.86 111.863C1257.52 111.825 1267.82 111.413 1280.87 110.925C1302.66 110.138 1308.84 109.95 1306.96 110.138ZM1467.11 110.925C1480.15 111.413 1490.62 111.825 1490.28 111.863C1489.59 111.938 1442.56 110.269 1441.19 110.138C1439.3 109.95 1444.79 110.119 1467.11 110.925ZM1856.24 110.138C1854.87 110.269 1807.84 111.938 1807.15 111.863C1806.81 111.825 1817.1 111.413 1830.15 110.925C1851.95 110.138 1858.13 109.95 1856.24 110.138ZM2016.39 110.925C2029.44 111.413 2039.91 111.825 2039.57 111.863C2038.88 111.938 1991.85 110.269 1990.47 110.138C1988.59 109.95 1994.08 110.119 2016.39 110.925ZM142.471 112.688C138.695 112.875 134.403 113.044 133.03 113.044C131.657 113.044 133.888 112.875 138.18 112.688C148.135 112.238 151.397 112.238 142.471 112.688ZM415.225 112.8C418.144 112.931 419.345 113.044 417.972 113.044C416.599 113.044 412.307 112.875 408.531 112.669C401.15 112.294 406.643 112.388 415.225 112.8ZM691.756 112.688C687.98 112.875 683.689 113.044 682.316 113.044C680.942 113.044 683.174 112.875 687.465 112.688C697.421 112.238 700.682 112.238 691.756 112.688ZM964.511 112.8C967.429 112.931 968.631 113.044 967.257 113.044C965.884 113.044 961.593 112.875 957.817 112.669C950.436 112.294 955.928 112.388 964.511 112.8ZM1241.04 112.688C1237.27 112.875 1232.97 113.044 1231.6 113.044C1230.23 113.044 1232.46 112.875 1236.75 112.688C1246.71 112.238 1249.97 112.238 1241.04 112.688ZM1513.8 112.8C1516.71 112.931 1517.92 113.044 1516.54 113.044C1515.17 113.044 1510.88 112.875 1507.1 112.669C1499.72 112.294 1505.21 112.388 1513.8 112.8ZM1790.33 112.688C1786.55 112.875 1782.26 113.044 1780.89 113.044C1779.51 113.044 1781.74 112.875 1786.04 112.688C1795.99 112.238 1799.25 112.238 1790.33 112.688ZM2063.08 112.8C2066 112.931 2067.2 113.044 2065.83 113.044C2064.46 113.044 2060.16 112.875 2056.39 112.669C2049.01 112.294 2054.5 112.388 2063.08 112.8ZM115.007 113.813C111.23 114 106.939 114.169 105.566 114.169C104.193 114.169 106.424 114 110.715 113.813C120.671 113.363 123.933 113.363 115.007 113.813ZM442.69 113.925C445.608 114.056 446.809 114.169 445.436 114.169C444.063 114.169 439.772 114 435.995 113.794C428.614 113.419 434.107 113.513 442.69 113.925ZM664.292 113.813C660.516 114 656.224 114.169 654.851 114.169C653.478 114.169 655.71 114 660.001 113.813C669.957 113.363 673.218 113.363 664.292 113.813ZM991.975 113.925C994.893 114.056 996.095 114.169 994.722 114.169C993.348 114.169 989.057 114 985.281 113.794C977.9 113.419 983.393 113.513 991.975 113.925ZM1213.58 113.813C1209.8 114 1205.51 114.169 1204.14 114.169C1202.76 114.169 1204.99 114 1209.29 113.813C1219.24 113.363 1222.5 113.363 1213.58 113.813ZM1541.26 113.925C1544.18 114.056 1545.38 114.169 1544.01 114.169C1542.63 114.169 1538.34 114 1534.57 113.794C1527.19 113.419 1532.68 113.513 1541.26 113.925ZM1762.86 113.813C1759.09 114 1754.8 114.169 1753.42 114.169C1752.05 114.169 1754.28 114 1758.57 113.813C1768.53 113.363 1771.79 113.363 1762.86 113.813ZM2090.55 113.925C2093.46 114.056 2094.67 114.169 2093.29 114.169C2091.92 114.169 2087.63 114 2083.85 113.794C2076.47 113.419 2081.96 113.513 2090.55 113.925ZM100.416 114.375C99.043 114.469 96.6399 114.544 95.2667 114.544C93.5502 114.544 93.8935 114.488 96.125 114.375C100.76 114.15 103.506 114.15 100.416 114.375ZM454.877 114.375C457.108 114.488 457.452 114.544 455.735 114.544C454.362 114.544 451.959 114.469 450.586 114.375C447.496 114.15 450.242 114.15 454.877 114.375ZM649.702 114.375C648.328 114.469 645.925 114.544 644.552 114.544C642.836 114.544 643.179 114.488 645.41 114.375C650.045 114.15 652.791 114.15 649.702 114.375ZM1004.16 114.375C1006.39 114.488 1006.74 114.544 1005.02 114.544C1003.65 114.544 1001.24 114.469 999.871 114.375C996.781 114.15 999.528 114.15 1004.16 114.375ZM1198.99 114.375C1197.61 114.469 1195.21 114.544 1193.84 114.544C1192.12 114.544 1192.46 114.488 1194.7 114.375C1199.33 114.15 1202.08 114.15 1198.99 114.375ZM1553.45 114.375C1555.68 114.488 1556.02 114.544 1554.31 114.544C1552.93 114.544 1550.53 114.469 1549.16 114.375C1546.07 114.15 1548.81 114.15 1553.45 114.375ZM1748.27 114.375C1746.9 114.469 1744.5 114.544 1743.12 114.544C1741.41 114.544 1741.75 114.488 1743.98 114.375C1748.62 114.15 1751.36 114.15 1748.27 114.375ZM2102.73 114.375C2104.96 114.488 2105.31 114.544 2103.59 114.544C2102.22 114.544 2099.82 114.469 2098.44 114.375C2095.35 114.15 2098.1 114.15 2102.73 114.375ZM90.1171 114.75C88.7439 114.844 86.3408 114.919 84.9676 114.919C83.2511 114.919 83.5944 114.863 85.8259 114.75C90.4605 114.525 93.2069 114.525 90.1171 114.75ZM465.176 114.75C467.408 114.863 467.751 114.919 466.034 114.919C464.661 114.919 462.258 114.844 460.885 114.75C457.795 114.525 460.542 114.525 465.176 114.75ZM639.403 114.75C638.029 114.844 635.626 114.919 634.253 114.919C632.537 114.919 632.88 114.863 635.111 114.75C639.746 114.525 642.492 114.525 639.403 114.75ZM1014.46 114.75C1016.69 114.863 1017.04 114.919 1015.32 114.919C1013.95 114.919 1011.54 114.844 1010.17 114.75C1007.08 114.525 1009.83 114.525 1014.46 114.75ZM1188.69 114.75C1187.31 114.844 1184.91 114.919 1183.54 114.919C1181.82 114.919 1182.17 114.863 1184.4 114.75C1189.03 114.525 1191.78 114.525 1188.69 114.75ZM1563.75 114.75C1565.98 114.863 1566.32 114.919 1564.61 114.919C1563.23 114.919 1560.83 114.844 1559.46 114.75C1556.37 114.525 1559.11 114.525 1563.75 114.75ZM1737.97 114.75C1736.6 114.844 1734.2 114.919 1732.82 114.919C1731.11 114.919 1731.45 114.863 1733.68 114.75C1738.32 114.525 1741.06 114.525 1737.97 114.75ZM2113.03 114.75C2115.26 114.863 2115.61 114.919 2113.89 114.919C2112.52 114.919 2110.11 114.844 2108.74 114.75C2105.65 114.525 2108.4 114.525 2113.03 114.75ZM79.818 115.106C78.4448 115.2 74.4968 115.313 71.2355 115.369C65.2276 115.481 65.2276 115.481 72.0937 115.219C79.9897 114.938 83.5944 114.881 79.818 115.106ZM482.341 115.35C484.573 115.444 483.886 115.463 479.767 115.388C476.505 115.313 472.557 115.2 471.184 115.106C468.094 114.9 477.02 115.088 482.341 115.35ZM629.103 115.106C627.73 115.2 623.782 115.313 620.521 115.369C614.513 115.481 614.513 115.481 621.379 115.219C629.275 114.938 632.88 114.881 629.103 115.106ZM1031.63 115.35C1033.86 115.444 1033.17 115.463 1029.05 115.388C1025.79 115.313 1021.84 115.2 1020.47 115.106C1017.38 114.9 1026.31 115.088 1031.63 115.35ZM1178.39 115.106C1177.02 115.2 1173.07 115.313 1169.81 115.369C1163.8 115.481 1163.8 115.481 1170.66 115.219C1178.56 114.938 1182.17 114.881 1178.39 115.106ZM1580.91 115.35C1583.14 115.444 1582.46 115.463 1578.34 115.388C1575.08 115.313 1571.13 115.2 1569.75 115.106C1566.67 114.9 1575.59 115.088 1580.91 115.35ZM1727.67 115.106C1726.3 115.2 1722.35 115.313 1719.09 115.369C1713.08 115.481 1713.08 115.481 1719.95 115.219C1727.85 114.938 1731.45 114.881 1727.67 115.106ZM2130.2 115.35C2132.43 115.444 2131.74 115.463 2127.62 115.388C2124.36 115.313 2120.41 115.2 2119.04 115.106C2115.95 114.9 2124.88 115.088 2130.2 115.35ZM60.9364 115.688C55.1002 115.894 50.6373 115.894 54.9285 115.688C56.8167 115.594 59.9064 115.538 61.7946 115.538C64.541 115.538 64.3694 115.575 60.9364 115.688ZM496.073 115.688C500.365 115.894 495.902 115.894 490.066 115.688C486.633 115.575 486.461 115.538 489.207 115.538C491.096 115.538 494.185 115.594 496.073 115.688ZM610.222 115.688C604.386 115.894 599.923 115.894 604.214 115.688C606.102 115.594 609.192 115.538 611.08 115.538C613.826 115.538 613.655 115.575 610.222 115.688ZM1045.36 115.688C1049.65 115.894 1045.19 115.894 1039.35 115.688C1035.92 115.575 1035.75 115.538 1038.49 115.538C1040.38 115.538 1043.47 115.594 1045.36 115.688ZM1159.51 115.688C1153.67 115.894 1149.21 115.894 1153.5 115.688C1155.39 115.594 1158.48 115.538 1160.37 115.538C1163.11 115.538 1162.94 115.575 1159.51 115.688ZM1594.64 115.688C1598.94 115.894 1594.47 115.894 1588.64 115.688C1585.2 115.575 1585.03 115.538 1587.78 115.538C1589.67 115.538 1592.76 115.594 1594.64 115.688ZM1708.79 115.688C1702.96 115.894 1698.49 115.894 1702.78 115.688C1704.67 115.594 1707.76 115.538 1709.65 115.538C1712.4 115.538 1712.23 115.575 1708.79 115.688ZM2143.93 115.688C2148.22 115.894 2143.76 115.894 2137.92 115.688C2134.49 115.575 2134.32 115.538 2137.06 115.538C2138.95 115.538 2142.04 115.594 2143.93 115.688ZM46.346 116.063C43.5995 116.138 39.6515 116.213 37.7634 116.213C35.0169 116.213 35.1886 116.175 38.6216 116.063C41.0248 115.988 44.8011 115.913 47.2042 115.913C50.9806 115.913 50.9806 115.931 46.346 116.063ZM512.38 116.063C515.813 116.175 515.985 116.213 513.239 116.213C511.35 116.213 507.574 116.138 504.656 116.063C500.021 115.931 500.021 115.913 503.798 115.913C506.201 115.913 509.977 115.988 512.38 116.063ZM595.631 116.063C592.885 116.138 588.937 116.213 587.049 116.213C584.302 116.213 584.474 116.175 587.907 116.063C590.31 115.988 594.087 115.913 596.49 115.913C600.266 115.913 600.266 115.931 595.631 116.063ZM1061.67 116.063C1065.1 116.175 1065.27 116.213 1062.52 116.213C1060.64 116.213 1056.86 116.138 1053.94 116.063C1049.31 115.931 1049.31 115.913 1053.08 115.913C1055.49 115.913 1059.26 115.988 1061.67 116.063ZM1144.92 116.063C1142.17 116.138 1138.22 116.213 1136.33 116.213C1133.59 116.213 1133.76 116.175 1137.19 116.063C1139.6 115.988 1143.37 115.913 1145.78 115.913C1149.55 115.913 1149.55 115.931 1144.92 116.063ZM1610.95 116.063C1614.38 116.175 1614.56 116.213 1611.81 116.213C1609.92 116.213 1606.15 116.138 1603.23 116.063C1598.59 115.931 1598.59 115.913 1602.37 115.913C1604.77 115.913 1608.55 115.988 1610.95 116.063ZM1694.2 116.063C1691.46 116.138 1687.51 116.213 1685.62 116.213C1682.87 116.213 1683.04 116.175 1686.48 116.063C1688.88 115.988 1692.66 115.913 1695.06 115.913C1698.84 115.913 1698.84 115.931 1694.2 116.063ZM2160.24 116.063C2163.67 116.175 2163.84 116.213 2161.09 116.213C2159.21 116.213 2155.43 116.138 2152.51 116.063C2147.88 115.931 2147.88 115.913 2151.65 115.913C2154.06 115.913 2157.83 115.988 2160.24 116.063ZM30.554 116.381C28.3225 116.419 24.8895 116.419 22.8297 116.381C20.5982 116.344 22.3147 116.306 26.606 116.306C30.8973 116.306 32.6138 116.344 30.554 116.381ZM528.344 116.381C526.112 116.419 522.679 116.419 520.62 116.381C518.388 116.344 520.105 116.306 524.396 116.306C528.687 116.306 530.404 116.344 528.344 116.381ZM579.839 116.381C577.608 116.419 574.175 116.419 572.115 116.381C569.884 116.344 571.6 116.306 575.891 116.306C580.183 116.306 581.899 116.344 579.839 116.381ZM1077.63 116.381C1075.4 116.419 1071.96 116.419 1069.91 116.381C1067.67 116.344 1069.39 116.306 1073.68 116.306C1077.97 116.306 1079.69 116.344 1077.63 116.381ZM1129.12 116.381C1126.89 116.419 1123.46 116.419 1121.4 116.381C1119.17 116.344 1120.89 116.306 1125.18 116.306C1129.47 116.306 1131.18 116.344 1129.12 116.381ZM1626.91 116.381C1624.68 116.419 1621.25 116.419 1619.19 116.381C1616.96 116.344 1618.68 116.306 1622.97 116.306C1627.26 116.306 1628.97 116.344 1626.91 116.381ZM1678.41 116.381C1676.18 116.419 1672.75 116.419 1670.69 116.381C1668.45 116.344 1670.17 116.306 1674.46 116.306C1678.75 116.306 1680.47 116.344 1678.41 116.381ZM2176.2 116.381C2173.97 116.419 2170.54 116.419 2168.48 116.381C2166.24 116.344 2167.96 116.306 2172.25 116.306C2176.54 116.306 2178.26 116.344 2176.2 116.381ZM559.241 116.569C554.263 116.606 546.024 116.606 541.218 116.569C536.24 116.531 540.188 116.513 550.144 116.513C560.099 116.513 564.048 116.531 559.241 116.569ZM1108.53 116.569C1103.55 116.606 1095.31 116.606 1090.5 116.569C1085.53 116.531 1089.47 116.513 1099.43 116.513C1109.38 116.513 1113.33 116.531 1108.53 116.569ZM1657.81 116.569C1652.83 116.606 1644.59 116.606 1639.79 116.569C1634.81 116.531 1638.76 116.513 1648.71 116.513C1658.67 116.513 1662.62 116.531 1657.81 116.569ZM284.599 119.194C279.621 119.231 271.381 119.231 266.575 119.194C261.597 119.156 265.545 119.138 275.501 119.138C285.457 119.138 289.405 119.156 284.599 119.194ZM833.884 119.194C828.906 119.231 820.667 119.231 815.861 119.194C810.883 119.156 814.831 119.138 824.786 119.138C834.742 119.138 838.69 119.156 833.884 119.194ZM1383.17 119.194C1378.19 119.231 1369.95 119.231 1365.15 119.194C1360.17 119.156 1364.12 119.138 1374.07 119.138C1384.03 119.138 1387.98 119.156 1383.17 119.194ZM1932.45 119.194C1927.48 119.231 1919.24 119.231 1914.43 119.194C1909.45 119.156 1913.4 119.138 1923.36 119.138C1933.31 119.138 1937.26 119.156 1932.45 119.194ZM253.701 119.381C251.47 119.419 248.037 119.419 245.977 119.381C243.745 119.344 245.462 119.306 249.753 119.306C254.045 119.306 255.761 119.344 253.701 119.381ZM305.197 119.381C302.965 119.419 299.532 119.419 297.472 119.381C295.241 119.344 296.957 119.306 301.249 119.306C305.54 119.306 307.257 119.344 305.197 119.381ZM802.987 119.381C800.755 119.419 797.322 119.419 795.262 119.381C793.031 119.344 794.747 119.306 799.039 119.306C803.33 119.306 805.046 119.344 802.987 119.381ZM854.482 119.381C852.251 119.419 848.818 119.419 846.758 119.381C844.526 119.344 846.243 119.306 850.534 119.306C854.826 119.306 856.542 119.344 854.482 119.381ZM1352.27 119.381C1350.04 119.419 1346.61 119.419 1344.55 119.381C1342.32 119.344 1344.03 119.306 1348.32 119.306C1352.62 119.306 1354.33 119.344 1352.27 119.381ZM1403.77 119.381C1401.54 119.419 1398.1 119.419 1396.04 119.381C1393.81 119.344 1395.53 119.306 1399.82 119.306C1404.11 119.306 1405.83 119.344 1403.77 119.381ZM1901.56 119.381C1899.33 119.419 1895.89 119.419 1893.83 119.381C1891.6 119.344 1893.32 119.306 1897.61 119.306C1901.9 119.306 1903.62 119.344 1901.56 119.381ZM1953.05 119.381C1950.82 119.419 1947.39 119.419 1945.33 119.381C1943.1 119.344 1944.81 119.306 1949.11 119.306C1953.4 119.306 1955.11 119.344 1953.05 119.381ZM237.738 119.625C235.334 119.7 231.558 119.775 229.155 119.775C225.379 119.775 225.379 119.756 230.013 119.625C232.931 119.55 236.708 119.475 238.596 119.475C241.342 119.475 241.171 119.513 237.738 119.625ZM320.989 119.625C325.623 119.756 325.623 119.775 321.847 119.775C319.444 119.775 315.667 119.7 313.264 119.625C309.831 119.513 309.66 119.475 312.406 119.475C314.294 119.475 318.242 119.55 320.989 119.625ZM787.023 119.625C784.62 119.7 780.844 119.775 778.44 119.775C774.664 119.775 774.664 119.756 779.299 119.625C782.217 119.55 785.993 119.475 787.881 119.475C790.628 119.475 790.456 119.513 787.023 119.625ZM870.274 119.625C874.909 119.756 874.909 119.775 871.132 119.775C868.729 119.775 864.953 119.7 862.55 119.625C859.117 119.513 858.945 119.475 861.692 119.475C863.58 119.475 867.528 119.55 870.274 119.625ZM1336.31 119.625C1333.91 119.7 1330.13 119.775 1327.73 119.775C1323.95 119.775 1323.95 119.756 1328.58 119.625C1331.5 119.55 1335.28 119.475 1337.17 119.475C1339.91 119.475 1339.74 119.513 1336.31 119.625ZM1419.56 119.625C1424.19 119.756 1424.19 119.775 1420.42 119.775C1418.01 119.775 1414.24 119.7 1411.84 119.625C1408.4 119.513 1408.23 119.475 1410.98 119.475C1412.87 119.475 1416.81 119.55 1419.56 119.625ZM1885.59 119.625C1883.19 119.7 1879.41 119.775 1877.01 119.775C1873.24 119.775 1873.24 119.756 1877.87 119.625C1880.79 119.55 1884.56 119.475 1886.45 119.475C1889.2 119.475 1889.03 119.513 1885.59 119.625ZM1968.84 119.625C1973.48 119.756 1973.48 119.775 1969.7 119.775C1967.3 119.775 1963.52 119.7 1961.12 119.625C1957.69 119.513 1957.52 119.475 1960.26 119.475C1962.15 119.475 1966.1 119.55 1968.84 119.625ZM221.431 120C219.543 120.094 216.453 120.15 214.565 120.15C211.818 120.15 211.99 120.113 215.423 120C221.259 119.794 225.722 119.794 221.431 120ZM335.579 120C339.012 120.113 339.184 120.15 336.437 120.15C334.549 120.15 331.459 120.094 329.571 120C325.28 119.794 329.743 119.794 335.579 120ZM770.716 120C768.828 120.094 765.738 120.15 763.85 120.15C761.104 120.15 761.275 120.113 764.708 120C770.544 119.794 775.007 119.794 770.716 120ZM884.865 120C888.298 120.113 888.469 120.15 885.723 120.15C883.835 120.15 880.745 120.094 878.857 120C874.565 119.794 879.028 119.794 884.865 120ZM1320 120C1318.11 120.094 1315.02 120.15 1313.14 120.15C1310.39 120.15 1310.56 120.113 1313.99 120C1319.83 119.794 1324.29 119.794 1320 120ZM1434.15 120C1437.58 120.113 1437.75 120.15 1435.01 120.15C1433.12 120.15 1430.03 120.094 1428.14 120C1423.85 119.794 1428.31 119.794 1434.15 120ZM1869.29 120C1867.4 120.094 1864.31 120.15 1862.42 120.15C1859.67 120.15 1859.85 120.113 1863.28 120C1869.12 119.794 1873.58 119.794 1869.29 120ZM1983.44 120C1986.87 120.113 1987.04 120.15 1984.29 120.15C1982.41 120.15 1979.32 120.094 1977.43 120C1973.14 119.794 1977.6 119.794 1983.44 120ZM203.579 120.488C199.288 120.638 195.511 120.713 195.168 120.656C194.31 120.563 204.78 120.225 208.557 120.225C209.93 120.225 207.699 120.338 203.579 120.488ZM354.461 120.581C357.55 120.788 348.625 120.6 343.303 120.338C341.072 120.244 341.759 120.225 345.878 120.3C349.14 120.375 353.088 120.488 354.461 120.581ZM752.864 120.488C748.573 120.638 744.797 120.713 744.453 120.656C743.595 120.563 754.066 120.225 757.842 120.225C759.215 120.225 756.984 120.338 752.864 120.488ZM903.746 120.581C906.836 120.788 897.91 120.6 892.589 120.338C890.357 120.244 891.044 120.225 895.164 120.3C898.425 120.375 902.373 120.488 903.746 120.581ZM1302.15 120.488C1297.86 120.638 1294.08 120.713 1293.74 120.656C1292.88 120.563 1303.35 120.225 1307.13 120.225C1308.5 120.225 1306.27 120.338 1302.15 120.488ZM1453.03 120.581C1456.12 120.788 1447.2 120.6 1441.87 120.338C1439.64 120.244 1440.33 120.225 1444.45 120.3C1447.71 120.375 1451.66 120.488 1453.03 120.581ZM1851.44 120.488C1847.14 120.638 1843.37 120.713 1843.02 120.656C1842.17 120.563 1852.64 120.225 1856.41 120.225C1857.79 120.225 1855.55 120.338 1851.44 120.488ZM2002.32 120.581C2005.41 120.788 1996.48 120.6 1991.16 120.338C1988.93 120.244 1989.61 120.225 1993.73 120.3C1997 120.375 2000.94 120.488 2002.32 120.581ZM190.533 120.938C185.899 121.163 183.152 121.163 186.242 120.938C187.615 120.844 190.018 120.769 191.392 120.769C193.108 120.769 192.765 120.825 190.533 120.938ZM364.76 120.938C367.85 121.163 365.103 121.163 360.469 120.938C358.237 120.825 357.894 120.769 359.61 120.769C360.984 120.769 363.387 120.844 364.76 120.938ZM739.819 120.938C735.184 121.163 732.438 121.163 735.528 120.938C736.901 120.844 739.304 120.769 740.677 120.769C742.394 120.769 742.05 120.825 739.819 120.938ZM914.045 120.938C917.135 121.163 914.389 121.163 909.754 120.938C907.523 120.825 907.179 120.769 908.896 120.769C910.269 120.769 912.672 120.844 914.045 120.938ZM1289.1 120.938C1284.47 121.163 1281.72 121.163 1284.81 120.938C1286.19 120.844 1288.59 120.769 1289.96 120.769C1291.68 120.769 1291.34 120.825 1289.1 120.938ZM1463.33 120.938C1466.42 121.163 1463.67 121.163 1459.04 120.938C1456.81 120.825 1456.46 120.769 1458.18 120.769C1459.55 120.769 1461.96 120.844 1463.33 120.938ZM1838.39 120.938C1833.76 121.163 1831.01 121.163 1834.1 120.938C1835.47 120.844 1837.87 120.769 1839.25 120.769C1840.96 120.769 1840.62 120.825 1838.39 120.938ZM2012.62 120.938C2015.71 121.163 2012.96 121.163 2008.32 120.938C2006.09 120.825 2005.75 120.769 2007.47 120.769C2008.84 120.769 2011.24 120.844 2012.62 120.938ZM180.234 121.313C175.6 121.538 172.853 121.538 175.943 121.313C177.316 121.219 179.719 121.144 181.093 121.144C182.809 121.144 182.466 121.2 180.234 121.313ZM375.059 121.313C378.149 121.538 375.402 121.538 370.768 121.313C368.536 121.2 368.193 121.144 369.909 121.144C371.283 121.144 373.686 121.219 375.059 121.313ZM729.52 121.313C724.885 121.538 722.139 121.538 725.228 121.313C726.602 121.219 729.005 121.144 730.378 121.144C732.094 121.144 731.751 121.2 729.52 121.313ZM924.344 121.313C927.434 121.538 924.688 121.538 920.053 121.313C917.822 121.2 917.478 121.144 919.195 121.144C920.568 121.144 922.971 121.219 924.344 121.313ZM1278.81 121.313C1274.17 121.538 1271.42 121.538 1274.51 121.313C1275.89 121.219 1278.29 121.144 1279.66 121.144C1281.38 121.144 1281.04 121.2 1278.81 121.313ZM1473.63 121.313C1476.72 121.538 1473.97 121.538 1469.34 121.313C1467.11 121.2 1466.76 121.144 1468.48 121.144C1469.85 121.144 1472.26 121.219 1473.63 121.313ZM1828.09 121.313C1823.46 121.538 1820.71 121.538 1823.8 121.313C1825.17 121.219 1827.58 121.144 1828.95 121.144C1830.67 121.144 1830.32 121.2 1828.09 121.313ZM2022.92 121.313C2026.01 121.538 2023.26 121.538 2018.62 121.313C2016.39 121.2 2016.05 121.144 2017.77 121.144C2019.14 121.144 2021.54 121.219 2022.92 121.313ZM168.047 121.763C159.464 122.175 153.972 122.269 161.353 121.894C165.129 121.688 169.42 121.519 170.793 121.519C172.167 121.519 170.965 121.631 168.047 121.763ZM389.649 121.894C393.426 122.081 394.627 122.194 392.396 122.138C386.045 121.95 377.29 121.519 380.209 121.519C381.582 121.519 385.873 121.688 389.649 121.894ZM717.332 121.763C708.75 122.175 703.257 122.269 710.638 121.894C714.414 121.688 718.706 121.519 720.079 121.519C721.452 121.519 720.251 121.631 717.332 121.763ZM938.935 121.894C942.711 122.081 943.913 122.194 941.681 122.138C935.33 121.95 926.576 121.519 929.494 121.519C930.867 121.519 935.158 121.688 938.935 121.894ZM1266.62 121.763C1258.04 122.175 1252.54 122.269 1259.92 121.894C1263.7 121.688 1267.99 121.519 1269.36 121.519C1270.74 121.519 1269.54 121.631 1266.62 121.763ZM1488.22 121.894C1492 122.081 1493.2 122.194 1490.97 122.138C1484.62 121.95 1475.86 121.519 1478.78 121.519C1480.15 121.519 1484.44 121.688 1488.22 121.894ZM1815.9 121.763C1807.32 122.175 1801.83 122.269 1809.21 121.894C1812.99 121.688 1817.28 121.519 1818.65 121.519C1820.02 121.519 1818.82 121.631 1815.9 121.763ZM2037.51 121.894C2041.28 122.081 2042.48 122.194 2040.25 122.138C2033.9 121.95 2025.15 121.519 2028.06 121.519C2029.44 121.519 2033.73 121.688 2037.51 121.894ZM140.583 122.888C132 123.3 126.507 123.394 133.888 123.019C137.665 122.813 141.956 122.644 143.329 122.644C144.702 122.644 143.501 122.756 140.583 122.888ZM417.114 123.019C420.89 123.206 422.092 123.319 419.86 123.263C413.509 123.075 404.755 122.644 407.673 122.644C409.046 122.644 413.337 122.813 417.114 123.019ZM689.868 122.888C681.286 123.3 675.793 123.394 683.174 123.019C686.95 122.813 691.241 122.644 692.615 122.644C693.988 122.644 692.786 122.756 689.868 122.888ZM966.399 123.019C970.175 123.206 971.377 123.319 969.146 123.263C962.794 123.075 954.04 122.644 956.958 122.644C958.331 122.644 962.623 122.813 966.399 123.019ZM1239.15 122.888C1230.57 123.3 1225.08 123.394 1232.46 123.019C1236.24 122.813 1240.53 122.644 1241.9 122.644C1243.27 122.644 1242.07 122.756 1239.15 122.888ZM1515.68 123.019C1519.46 123.206 1520.66 123.319 1518.43 123.263C1512.08 123.075 1503.33 122.644 1506.24 122.644C1507.62 122.644 1511.91 122.813 1515.68 123.019ZM1788.44 122.888C1779.86 123.3 1774.36 123.394 1781.74 123.019C1785.52 122.813 1789.81 122.644 1791.19 122.644C1792.56 122.644 1791.36 122.756 1788.44 122.888ZM2064.97 123.019C2068.75 123.206 2069.95 123.319 2067.72 123.263C2061.37 123.075 2052.61 122.644 2055.53 122.644C2056.9 122.644 2061.19 122.813 2064.97 123.019ZM112.947 124.031C104.708 124.425 69.1756 125.644 68.489 125.569C68.1457 125.531 78.1015 125.119 90.6321 124.65C113.118 123.825 123.589 123.525 112.947 124.031ZM460.542 124.669C472.9 125.119 482.856 125.531 482.513 125.569C481.826 125.663 445.951 124.406 438.055 124.013C429.644 123.6 435.309 123.769 460.542 124.669ZM662.232 124.031C653.993 124.425 618.461 125.644 617.774 125.569C617.431 125.531 627.387 125.119 639.918 124.65C662.404 123.825 672.875 123.525 662.232 124.031ZM1009.83 124.669C1022.19 125.119 1032.14 125.531 1031.8 125.569C1031.11 125.663 995.237 124.406 987.341 124.013C978.93 123.6 984.594 123.769 1009.83 124.669ZM1211.52 124.031C1203.28 124.425 1167.75 125.644 1167.06 125.569C1166.72 125.531 1176.67 125.119 1189.2 124.65C1211.69 123.825 1222.16 123.525 1211.52 124.031ZM1559.11 124.669C1571.47 125.119 1581.43 125.531 1581.08 125.569C1580.4 125.663 1544.52 124.406 1536.63 124.013C1528.22 123.6 1533.88 123.769 1559.11 124.669ZM1760.8 124.031C1752.56 124.425 1717.03 125.644 1716.35 125.569C1716 125.531 1725.96 125.119 1738.49 124.65C1760.97 123.825 1771.45 123.525 1760.8 124.031ZM2108.4 124.669C2120.76 125.119 2130.71 125.531 2130.37 125.569C2129.68 125.663 2093.81 124.406 2085.91 124.013C2077.5 123.6 2083.17 123.769 2108.4 124.669ZM62.6529 125.813C56.8167 126.019 52.3538 126.019 56.6451 125.813C58.5332 125.719 61.623 125.663 63.5111 125.663C66.2576 125.663 66.0859 125.7 62.6529 125.813ZM494.357 125.813C498.648 126.019 494.185 126.019 488.349 125.813C484.916 125.7 484.744 125.663 487.491 125.663C489.379 125.663 492.469 125.719 494.357 125.813ZM611.938 125.813C606.102 126.019 601.639 126.019 605.93 125.813C607.819 125.719 610.908 125.663 612.797 125.663C615.543 125.663 615.371 125.7 611.938 125.813ZM1043.64 125.813C1047.93 126.019 1043.47 126.019 1037.63 125.813C1034.2 125.7 1034.03 125.663 1036.78 125.663C1038.66 125.663 1041.75 125.719 1043.64 125.813ZM1161.22 125.813C1155.39 126.019 1150.92 126.019 1155.22 125.813C1157.1 125.719 1160.19 125.663 1162.08 125.663C1164.83 125.663 1164.66 125.7 1161.22 125.813ZM1592.93 125.813C1597.22 126.019 1592.76 126.019 1586.92 125.813C1583.49 125.7 1583.32 125.663 1586.06 125.663C1587.95 125.663 1591.04 125.719 1592.93 125.813ZM1710.51 125.813C1704.67 126.019 1700.21 126.019 1704.5 125.813C1706.39 125.719 1709.48 125.663 1711.37 125.663C1714.11 125.663 1713.94 125.7 1710.51 125.813ZM2142.21 125.813C2146.5 126.019 2142.04 126.019 2136.21 125.813C2132.77 125.7 2132.6 125.663 2135.35 125.663C2137.24 125.663 2140.33 125.719 2142.21 125.813ZM51.1522 126.131C49.9506 126.169 47.5475 126.169 46.0027 126.131C44.2861 126.075 45.3161 126.038 48.0625 126.038C50.9806 126.038 52.1821 126.075 51.1522 126.131ZM506.029 126.131C504.828 126.169 502.425 126.169 500.88 126.131C499.163 126.075 500.193 126.038 502.94 126.038C505.858 126.038 507.059 126.075 506.029 126.131ZM600.438 126.131C599.236 126.169 596.833 126.169 595.288 126.131C593.572 126.075 594.601 126.038 597.348 126.038C600.266 126.038 601.468 126.075 600.438 126.131ZM1055.31 126.131C1054.11 126.169 1051.71 126.169 1050.17 126.131C1048.45 126.075 1049.48 126.038 1052.22 126.038C1055.14 126.038 1056.34 126.075 1055.31 126.131ZM1149.72 126.131C1148.52 126.169 1146.12 126.169 1144.57 126.131C1142.86 126.075 1143.89 126.038 1146.63 126.038C1149.55 126.038 1150.75 126.075 1149.72 126.131ZM1604.6 126.131C1603.4 126.169 1601 126.169 1599.45 126.131C1597.73 126.075 1598.76 126.038 1601.51 126.038C1604.43 126.038 1605.63 126.075 1604.6 126.131ZM1699.01 126.131C1697.81 126.169 1695.4 126.169 1693.86 126.131C1692.14 126.075 1693.17 126.038 1695.92 126.038C1698.84 126.038 1700.04 126.075 1699.01 126.131ZM2153.89 126.131C2152.68 126.169 2150.28 126.169 2148.74 126.131C2147.02 126.075 2148.05 126.038 2150.8 126.038C2153.71 126.038 2154.92 126.075 2153.89 126.131ZM41.5397 126.3C41.0248 126.356 39.4799 126.375 38.2783 126.319C36.9051 126.263 37.4201 126.206 39.3082 126.206C41.1964 126.188 42.2263 126.244 41.5397 126.3ZM513.582 126.3C513.067 126.356 511.522 126.375 510.321 126.319C508.947 126.263 509.462 126.206 511.35 126.206C513.239 126.188 514.268 126.244 513.582 126.3ZM590.825 126.3C590.31 126.356 588.765 126.375 587.564 126.319C586.191 126.263 586.706 126.206 588.594 126.206C590.482 126.188 591.512 126.244 590.825 126.3ZM1062.87 126.3C1062.35 126.356 1060.81 126.375 1059.61 126.319C1058.23 126.263 1058.75 126.206 1060.64 126.206C1062.52 126.188 1063.55 126.244 1062.87 126.3ZM1140.11 126.3C1139.6 126.356 1138.05 126.375 1136.85 126.319C1135.48 126.263 1135.99 126.206 1137.88 126.206C1139.77 126.188 1140.8 126.244 1140.11 126.3ZM1612.15 126.3C1611.64 126.356 1610.09 126.375 1608.89 126.319C1607.52 126.263 1608.03 126.206 1609.92 126.206C1611.81 126.188 1612.84 126.244 1612.15 126.3ZM1689.4 126.3C1688.88 126.356 1687.34 126.375 1686.13 126.319C1684.76 126.263 1685.28 126.206 1687.16 126.206C1689.05 126.188 1690.08 126.244 1689.4 126.3ZM2161.44 126.3C2160.92 126.356 2159.38 126.375 2158.18 126.319C2156.8 126.263 2157.32 126.206 2159.21 126.206C2161.1 126.188 2162.12 126.244 2161.44 126.3ZM33.1288 126.506C31.4123 126.544 28.3225 126.544 26.2627 126.506C24.0312 126.469 25.4045 126.431 29.1808 126.431C32.9571 126.413 34.6736 126.45 33.1288 126.506ZM525.769 126.506C524.053 126.544 520.963 126.544 518.903 126.506C516.672 126.469 518.045 126.431 521.821 126.431C525.598 126.413 527.314 126.45 525.769 126.506ZM582.414 126.506C580.698 126.544 577.608 126.544 575.548 126.506C573.317 126.469 574.69 126.431 578.466 126.431C582.243 126.413 583.959 126.45 582.414 126.506ZM1075.05 126.506C1073.34 126.544 1070.25 126.544 1068.19 126.506C1065.96 126.469 1067.33 126.431 1071.11 126.431C1074.88 126.413 1076.6 126.45 1075.05 126.506ZM1131.7 126.506C1129.98 126.544 1126.89 126.544 1124.83 126.506C1122.6 126.469 1123.98 126.431 1127.75 126.431C1131.53 126.413 1133.24 126.45 1131.7 126.506ZM1624.34 126.506C1622.62 126.544 1619.53 126.544 1617.47 126.506C1615.24 126.469 1616.62 126.431 1620.39 126.431C1624.17 126.413 1625.88 126.45 1624.34 126.506ZM1680.99 126.506C1679.27 126.544 1676.18 126.544 1674.12 126.506C1671.89 126.469 1673.26 126.431 1677.04 126.431C1680.81 126.413 1682.53 126.45 1680.99 126.506ZM2173.63 126.506C2171.91 126.544 2168.82 126.544 2166.76 126.506C2164.53 126.469 2165.9 126.431 2169.68 126.431C2173.45 126.413 2175.17 126.45 2173.63 126.506ZM560.1 126.694C554.607 126.731 545.681 126.731 540.36 126.694C534.867 126.656 539.33 126.638 550.144 126.638C560.958 126.638 565.421 126.656 560.1 126.694ZM1109.39 126.694C1103.89 126.731 1094.97 126.731 1089.64 126.694C1084.15 126.656 1088.62 126.638 1099.43 126.638C1110.24 126.638 1114.71 126.656 1109.39 126.694ZM1658.67 126.694C1653.18 126.731 1644.25 126.731 1638.93 126.694C1633.44 126.656 1637.9 126.638 1648.71 126.638C1659.53 126.638 1663.99 126.656 1658.67 126.694Z" fill="url(#paint5_linear)"/>
<path d="M0.857489 0H2210V128.437H0.857489V0Z" fill="url(#paint6_linear)"/>
<path d="M0.857489 0H2198V129H0.857489V0Z" fill="url(#paint7_linear)"/>
<defs>
<linearGradient id="paint0_linear" x1="1099.43" y1="0" x2="1099.43" y2="129" gradientUnits="userSpaceOnUse">
<stop stop-color="#4683A0"/>
<stop offset="0.123547" stop-color="#469FB1"/>
<stop offset="0.276042" stop-color="#44B5BB"/>
<stop offset="0.453125" stop-color="#44B5BB"/>
<stop offset="0.651042" stop-color="#63C6C1"/>
<stop offset="0.942708" stop-color="#FFF8D6"/>
</linearGradient>
<linearGradient id="paint1_linear" x1="1099.43" y1="0" x2="1099.43" y2="129" gradientUnits="userSpaceOnUse">
<stop stop-color="#4683A0"/>
<stop offset="0.123547" stop-color="#469FB1"/>
<stop offset="0.276042" stop-color="#44B5BB"/>
<stop offset="0.453125" stop-color="#44B5BB"/>
<stop offset="0.651042" stop-color="#63C6C1"/>
<stop offset="0.942708" stop-color="#FFF8D6"/>
</linearGradient>
<linearGradient id="paint2_linear" x1="1099.43" y1="0" x2="1099.43" y2="129" gradientUnits="userSpaceOnUse">
<stop stop-color="#4683A0"/>
<stop offset="0.123547" stop-color="#469FB1"/>
<stop offset="0.276042" stop-color="#44B5BB"/>
<stop offset="0.453125" stop-color="#44B5BB"/>
<stop offset="0.651042" stop-color="#63C6C1"/>
<stop offset="0.942708" stop-color="#FFF8D6"/>
</linearGradient>
<linearGradient id="paint3_linear" x1="1099.43" y1="0" x2="1099.43" y2="129" gradientUnits="userSpaceOnUse">
<stop stop-color="#4683A0"/>
<stop offset="0.123547" stop-color="#469FB1"/>
<stop offset="0.276042" stop-color="#44B5BB"/>
<stop offset="0.453125" stop-color="#44B5BB"/>
<stop offset="0.651042" stop-color="#63C6C1"/>
<stop offset="0.942708" stop-color="#FFF8D6"/>
</linearGradient>
<linearGradient id="paint4_linear" x1="1099.43" y1="0" x2="1099.43" y2="129" gradientUnits="userSpaceOnUse">
<stop stop-color="#4683A0"/>
<stop offset="0.123547" stop-color="#469FB1"/>
<stop offset="0.276042" stop-color="#44B5BB"/>
<stop offset="0.453125" stop-color="#44B5BB"/>
<stop offset="0.651042" stop-color="#63C6C1"/>
<stop offset="0.942708" stop-color="#FFF8D6"/>
</linearGradient>
<linearGradient id="paint5_linear" x1="1099.43" y1="0" x2="1099.43" y2="129" gradientUnits="userSpaceOnUse">
<stop stop-color="#4683A0"/>
<stop offset="0.123547" stop-color="#469FB1"/>
<stop offset="0.276042" stop-color="#44B5BB"/>
<stop offset="0.453125" stop-color="#44B5BB"/>
<stop offset="0.651042" stop-color="#63C6C1"/>
<stop offset="0.942708" stop-color="#FFF8D6"/>
</linearGradient>
<linearGradient id="paint6_linear" x1="1099.43" y1="0" x2="1099.43" y2="129" gradientUnits="userSpaceOnUse">
<stop stop-color="#4683A0"/>
<stop offset="0.123547" stop-color="#469FB1"/>
<stop offset="0.276042" stop-color="#44B5BB"/>
<stop offset="0.453125" stop-color="#44B5BB"/>
<stop offset="0.651042" stop-color="#63C6C1"/>
<stop offset="0.942708" stop-color="#FFF8D6"/>
</linearGradient>
<linearGradient id="paint7_linear" x1="1099.43" y1="0" x2="1099.43" y2="129" gradientUnits="userSpaceOnUse">
<stop stop-color="#4683A0"/>
<stop offset="0.123547" stop-color="#469FB1"/>
<stop offset="0.276042" stop-color="#44B5BB"/>
<stop offset="0.453125" stop-color="#44B5BB"/>
<stop offset="0.651042" stop-color="#63C6C1"/>
<stop offset="0.942708" stop-color="#FFF8D6"/>
</linearGradient>
</defs>
</svg>
